<svg xmlns="http://www.w3.org/2000/svg" viewBox="0 0 1400 640" width="1400" height="640" role="img" preserveAspectRatio="xMidYMid slice"><defs><linearGradient id="sk303" x1="0" y1="0" x2="0" y2="1"><stop offset="0" stop-color="#F6EFE4"/><stop offset="1" stop-color="#E3D6C4"/></linearGradient><radialGradient id="sn303"><stop offset="0" stop-color="#E8CFA8" stop-opacity=".95"/><stop offset="1" stop-color="#E8CFA8" stop-opacity="0"/></radialGradient></defs><rect width="1400" height="640" fill="url(#sk303)"/><circle cx="878.6369112782287" cy="108.80000000000001" r="294.40000000000003" fill="url(#sn303)"/><path d="M-20,835.2 L-20,408 L44,399 L107,401 L171,374 L235,349 L298,358 L362,340 L425,350 L489,359 L553,340 L616,371 L680,367 L744,407 L807,414 L871,409 L935,393 L998,336 L1062,396 L1125,378 L1189,354 L1253,342 L1316,360 L1380,418 L1440,835.2 Z" fill="#CFC3B2" opacity="0.55"/><path d="M-20,873.6 L-20,462 L44,459 L107,436 L171,424 L235,411 L298,413 L362,419 L425,417 L489,420 L553,406 L616,451 L680,460 L744,443 L807,435 L871,471 L935,437 L998,406 L1062,447 L1125,436 L1189,431 L1253,424 L1316,447 L1380,407 L1440,873.6 Z" fill="#BBAE9B" opacity="0.5"/><rect y="499" width="1400" height="140.79999999999995" fill="#D8CDBC"/><rect x="-56" y="353" width="263" height="118" fill="#E9DED0"/><rect x="-56" y="353" width="45" height="118" fill="#1A1A1A" opacity=".07"/><polygon points="-72,353 76,313 223,353" fill="#94806C"/><polygon points="76,313 223,353 107,353" fill="#1A1A1A" opacity=".10"/><rect x="8" y="414" width="50" height="56" fill="#94806C"/><rect x="8" y="414" width="50" height="56" fill="none" stroke="#F0EBE4" stroke-width="1.8"/><circle cx="48" cy="442" r="2" fill="#F0EBE4"/><rect x="60" y="383" width="45" height="32" fill="#6E6355" opacity="0.5"/><rect x="60" y="383" width="45" height="32" fill="none" stroke="#F0EBE4" stroke-width="2"/><line x1="82" y1="383" x2="82" y2="415" stroke="#F0EBE4" stroke-width="1.6"/><line x1="60" y1="399" x2="105" y2="399" stroke="#F0EBE4" stroke-width="1.6"/><rect x="57" y="415" width="51" height="3" fill="#F0EBE4" opacity=".8"/><rect x="128" y="383" width="45" height="32" fill="#6E6355" opacity="0.5"/><rect x="128" y="383" width="45" height="32" fill="none" stroke="#F0EBE4" stroke-width="2"/><line x1="151" y1="383" x2="151" y2="415" stroke="#F0EBE4" stroke-width="1.6"/><line x1="128" y1="399" x2="173" y2="399" stroke="#F0EBE4" stroke-width="1.6"/><rect x="125" y="415" width="51" height="3" fill="#F0EBE4" opacity=".8"/><rect x="479" y="307" width="24" height="45" fill="#94806C"/><rect x="286" y="350" width="262" height="120" fill="#EDE5D9"/><rect x="286" y="350" width="44" height="120" fill="#1A1A1A" opacity=".07"/><polygon points="270,350 417,300 563,350" fill="#94806C"/><polygon points="417,300 563,350 448,350" fill="#1A1A1A" opacity=".10"/><rect x="352" y="413" width="50" height="58" fill="#94806C"/><rect x="352" y="413" width="50" height="58" fill="none" stroke="#F0EBE4" stroke-width="1.8"/><circle cx="392" cy="442" r="2" fill="#F0EBE4"/><rect x="401" y="381" width="44" height="33" fill="#E8CFA8" opacity="0.85"/><rect x="401" y="381" width="44" height="33" fill="none" stroke="#F0EBE4" stroke-width="2"/><line x1="423" y1="381" x2="423" y2="414" stroke="#F0EBE4" stroke-width="1.6"/><line x1="401" y1="398" x2="446" y2="398" stroke="#F0EBE4" stroke-width="1.6"/><rect x="398" y="414" width="50" height="3" fill="#F0EBE4" opacity=".8"/><rect x="469" y="381" width="44" height="33" fill="#6E6355" opacity="0.5"/><rect x="469" y="381" width="44" height="33" fill="none" stroke="#F0EBE4" stroke-width="2"/><line x1="491" y1="381" x2="491" y2="414" stroke="#F0EBE4" stroke-width="1.6"/><line x1="469" y1="398" x2="514" y2="398" stroke="#F0EBE4" stroke-width="1.6"/><rect x="466" y="414" width="50" height="3" fill="#F0EBE4" opacity=".8"/><rect x="755" y="296" width="19" height="49" fill="#8A7663"/><rect x="594" y="343" width="215" height="127" fill="#EDE5D9"/><rect x="594" y="343" width="37" height="127" fill="#1A1A1A" opacity=".07"/><polygon points="581,343 702,289 823,343" fill="#8A7663"/><polygon points="702,289 823,343 728,343" fill="#1A1A1A" opacity=".10"/><rect x="632" y="409" width="41" height="61" fill="#8A7663"/><rect x="632" y="409" width="41" height="61" fill="none" stroke="#F0EBE4" stroke-width="1.8"/><circle cx="665" cy="440" r="2" fill="#F0EBE4"/><rect x="689" y="376" width="37" height="34" fill="#6E6355" opacity="0.5"/><rect x="689" y="376" width="37" height="34" fill="none" stroke="#F0EBE4" stroke-width="2"/><line x1="707" y1="376" x2="707" y2="411" stroke="#F0EBE4" stroke-width="1.6"/><line x1="689" y1="393" x2="726" y2="393" stroke="#F0EBE4" stroke-width="1.6"/><rect x="686" y="411" width="43" height="3" fill="#F0EBE4" opacity=".8"/><rect x="745" y="376" width="37" height="34" fill="#6E6355" opacity="0.5"/><rect x="745" y="376" width="37" height="34" fill="none" stroke="#F0EBE4" stroke-width="2"/><line x1="764" y1="376" x2="764" y2="411" stroke="#F0EBE4" stroke-width="1.6"/><line x1="745" y1="393" x2="782" y2="393" stroke="#F0EBE4" stroke-width="1.6"/><rect x="742" y="411" width="43" height="3" fill="#F0EBE4" opacity=".8"/><rect x="1034" y="315" width="23" height="37" fill="#94806C"/><rect x="863" y="350" width="252" height="120" fill="#EDE5D9"/><rect x="863" y="350" width="43" height="120" fill="#1A1A1A" opacity=".07"/><polygon points="848,350 989,309 1130,350" fill="#94806C"/><polygon points="989,309 1130,350 1019,350" fill="#1A1A1A" opacity=".10"/><rect x="922" y="413" width="48" height="58" fill="#94806C"/><rect x="922" y="413" width="48" height="58" fill="none" stroke="#F0EBE4" stroke-width="1.8"/><circle cx="960" cy="442" r="2" fill="#F0EBE4"/><rect x="974" y="381" width="43" height="32" fill="#6E6355" opacity="0.5"/><rect x="974" y="381" width="43" height="32" fill="none" stroke="#F0EBE4" stroke-width="2"/><line x1="995" y1="381" x2="995" y2="414" stroke="#F0EBE4" stroke-width="1.6"/><line x1="974" y1="398" x2="1017" y2="398" stroke="#F0EBE4" stroke-width="1.6"/><rect x="971" y="414" width="49" height="3" fill="#F0EBE4" opacity=".8"/><rect x="1039" y="381" width="43" height="32" fill="#6E6355" opacity="0.5"/><rect x="1039" y="381" width="43" height="32" fill="none" stroke="#F0EBE4" stroke-width="2"/><line x1="1061" y1="381" x2="1061" y2="414" stroke="#F0EBE4" stroke-width="1.6"/><line x1="1039" y1="398" x2="1082" y2="398" stroke="#F0EBE4" stroke-width="1.6"/><rect x="1036" y="414" width="49" height="3" fill="#F0EBE4" opacity=".8"/><rect x="1161" y="335" width="240" height="135" fill="#DCCFBE"/><rect x="1161" y="335" width="41" height="135" fill="#1A1A1A" opacity=".07"/><polygon points="1147,335 1281,273 1415,335" fill="#6F5F50"/><polygon points="1281,273 1415,335 1310,335" fill="#1A1A1A" opacity=".10"/><rect x="1217" y="405" width="46" height="65" fill="#6F5F50"/><rect x="1217" y="405" width="46" height="65" fill="none" stroke="#F0EBE4" stroke-width="1.8"/><circle cx="1254" cy="438" r="2" fill="#F0EBE4"/><rect x="1267" y="370" width="41" height="37" fill="#6E6355" opacity="0.5"/><rect x="1267" y="370" width="41" height="37" fill="none" stroke="#F0EBE4" stroke-width="2"/><line x1="1287" y1="370" x2="1287" y2="407" stroke="#F0EBE4" stroke-width="1.6"/><line x1="1267" y1="388" x2="1308" y2="388" stroke="#F0EBE4" stroke-width="1.6"/><rect x="1264" y="407" width="47" height="3" fill="#F0EBE4" opacity=".8"/><rect x="1329" y="370" width="41" height="37" fill="#E8CFA8" opacity="0.85"/><rect x="1329" y="370" width="41" height="37" fill="none" stroke="#F0EBE4" stroke-width="2"/><line x1="1350" y1="370" x2="1350" y2="407" stroke="#F0EBE4" stroke-width="1.6"/><line x1="1329" y1="388" x2="1370" y2="388" stroke="#F0EBE4" stroke-width="1.6"/><rect x="1326" y="407" width="47" height="3" fill="#F0EBE4" opacity=".8"/><rect width="1400" height="499" fill="#E3D6C4" opacity=".30"/><polygon points="-84,499 251,499 391,553 57,553" fill="#1A1A1A" opacity="0.09"/><rect x="137" y="253" width="30" height="67" fill="#6F5F50"/><rect x="-84" y="317" width="335" height="182" fill="#DCCFBE"/><rect x="-84" y="317" width="57" height="182" fill="#1A1A1A" opacity=".07"/><polygon points="-104,317 83,243 271,317" fill="#6F5F50"/><polygon points="83,243 271,317 124,317" fill="#1A1A1A" opacity=".10"/><rect x="-25" y="412" width="64" height="87" fill="#6F5F50"/><rect x="-25" y="412" width="64" height="87" fill="none" stroke="#F0EBE4" stroke-width="1.8"/><circle cx="26" cy="456" r="2" fill="#F0EBE4"/><rect x="63" y="365" width="57" height="49" fill="#6E6355" opacity="0.5"/><rect x="63" y="365" width="57" height="49" fill="none" stroke="#F0EBE4" stroke-width="2"/><line x1="92" y1="365" x2="92" y2="414" stroke="#F0EBE4" stroke-width="1.6"/><line x1="63" y1="389" x2="120" y2="389" stroke="#F0EBE4" stroke-width="1.6"/><rect x="60" y="414" width="63" height="3" fill="#F0EBE4" opacity=".8"/><rect x="150" y="365" width="57" height="49" fill="#6E6355" opacity="0.5"/><rect x="150" y="365" width="57" height="49" fill="none" stroke="#F0EBE4" stroke-width="2"/><line x1="179" y1="365" x2="179" y2="414" stroke="#F0EBE4" stroke-width="1.6"/><line x1="150" y1="389" x2="207" y2="389" stroke="#F0EBE4" stroke-width="1.6"/><rect x="147" y="414" width="63" height="3" fill="#F0EBE4" opacity=".8"/><circle cx="15" cy="486" r="21" fill="#8E9280" opacity="0.85"/><circle cx="-22" cy="486" r="26" fill="#8E9280" opacity="0.85"/><circle cx="-1" cy="489" r="17" fill="#8E9280" opacity="0.85"/><circle cx="23" cy="489" r="23" fill="#8E9280" opacity="0.85"/><polygon points="345,499 664,499 798,550 479,550" fill="#1A1A1A" opacity="0.09"/><rect x="345" y="292" width="319" height="208" fill="#DCCFBE"/><rect x="345" y="292" width="41" height="208" fill="#1A1A1A" opacity=".06"/><polygon points="332,292 441,229 575,229 677,292" fill="#94806C"/><rect x="530" y="385" width="38" height="114" fill="#94806C"/><rect x="374" y="354" width="64" height="62" fill="#6E6355" opacity="0.5"/><rect x="374" y="354" width="64" height="62" fill="none" stroke="#F0EBE4" stroke-width="2"/><line x1="406" y1="354" x2="406" y2="416" stroke="#F0EBE4" stroke-width="1.6"/><line x1="374" y1="385" x2="438" y2="385" stroke="#F0EBE4" stroke-width="1.6"/><rect x="371" y="416" width="70" height="3" fill="#F0EBE4" opacity=".8"/><rect x="457" y="354" width="64" height="62" fill="#E8CFA8" opacity="0.85"/><rect x="457" y="354" width="64" height="62" fill="none" stroke="#F0EBE4" stroke-width="2"/><line x1="489" y1="354" x2="489" y2="416" stroke="#F0EBE4" stroke-width="1.6"/><line x1="457" y1="385" x2="521" y2="385" stroke="#F0EBE4" stroke-width="1.6"/><rect x="454" y="416" width="70" height="3" fill="#F0EBE4" opacity=".8"/><rect x="600" y="370" width="3" height="129" fill="#94806C"/><path d="M674.9895566970478,499.20000000000005 C671.9895566970478,408.96793477745103 678.9895566970478,363.8519021661765 674.9895566970478,318.735869554902" stroke="#7A6857" stroke-width="6.3" fill="none" opacity="1.0"/><path d="M674.9895566970478,318.735869554902 Q646,302 617,310" stroke="#8E9280" stroke-width="4.7" fill="none" stroke-linecap="round" opacity="1.0"/><path d="M674.9895566970478,318.735869554902 Q651,302 628,294" stroke="#8E9280" stroke-width="4.7" fill="none" stroke-linecap="round" opacity="1.0"/><path d="M674.9895566970478,318.735869554902 Q664,305 654,291" stroke="#8E9280" stroke-width="4.7" fill="none" stroke-linecap="round" opacity="1.0"/><path d="M674.9895566970478,318.735869554902 Q675,306 675,291" stroke="#8E9280" stroke-width="4.7" fill="none" stroke-linecap="round" opacity="1.0"/><path d="M674.9895566970478,318.735869554902 Q686,305 696,291" stroke="#8E9280" stroke-width="4.7" fill="none" stroke-linecap="round" opacity="1.0"/><path d="M674.9895566970478,318.735869554902 Q697,303 719,296" stroke="#8E9280" stroke-width="4.7" fill="none" stroke-linecap="round" opacity="1.0"/><path d="M674.9895566970478,318.735869554902 Q697,306 719,312" stroke="#8E9280" stroke-width="4.7" fill="none" stroke-linecap="round" opacity="1.0"/><circle cx="399" cy="476" r="28" fill="#8E9280" opacity="0.85"/><circle cx="405" cy="477" r="23" fill="#8E9280" opacity="0.85"/><circle cx="390" cy="473" r="27" fill="#8E9280" opacity="0.85"/><circle cx="424" cy="471" r="18" fill="#8E9280" opacity="0.85"/><polygon points="761,499 1139,499 1298,560 920,560" fill="#1A1A1A" opacity="0.09"/><rect x="761" y="298" width="378" height="201" fill="#E4D9CA"/><rect x="761" y="298" width="64" height="201" fill="#1A1A1A" opacity=".07"/><polygon points="738,298 950,224 1162,298" fill="#6F5F50"/><polygon points="950,224 1162,298 996,298" fill="#1A1A1A" opacity=".10"/><rect x="835" y="403" width="72" height="97" fill="#6F5F50"/><rect x="835" y="403" width="72" height="97" fill="none" stroke="#F0EBE4" stroke-width="1.8"/><circle cx="892" cy="451" r="2" fill="#F0EBE4"/><rect x="927" y="350" width="64" height="54" fill="#E8CFA8" opacity="0.85"/><rect x="927" y="350" width="64" height="54" fill="none" stroke="#F0EBE4" stroke-width="2"/><line x1="960" y1="350" x2="960" y2="405" stroke="#F0EBE4" stroke-width="1.6"/><line x1="927" y1="377" x2="992" y2="377" stroke="#F0EBE4" stroke-width="1.6"/><rect x="924" y="405" width="70" height="3" fill="#F0EBE4" opacity=".8"/><rect x="1026" y="350" width="64" height="54" fill="#6E6355" opacity="0.5"/><rect x="1026" y="350" width="64" height="54" fill="none" stroke="#F0EBE4" stroke-width="2"/><line x1="1058" y1="350" x2="1058" y2="405" stroke="#F0EBE4" stroke-width="1.6"/><line x1="1026" y1="377" x2="1090" y2="377" stroke="#F0EBE4" stroke-width="1.6"/><rect x="1023" y="405" width="70" height="3" fill="#F0EBE4" opacity=".8"/><circle cx="861" cy="480" r="23" fill="#8E9280" opacity="0.85"/><circle cx="836" cy="480" r="24" fill="#8E9280" opacity="0.85"/><circle cx="864" cy="479" r="28" fill="#8E9280" opacity="0.85"/><circle cx="824" cy="482" r="26" fill="#8E9280" opacity="0.85"/><polygon points="1217,499 1631,499 1805,565 1391,565" fill="#1A1A1A" opacity="0.09"/><rect x="1217" y="289" width="414" height="211" fill="#E4D9CA"/><rect x="1217" y="289" width="54" height="211" fill="#1A1A1A" opacity=".06"/><polygon points="1200,289 1341,225 1515,225 1648,289" fill="#7A6857"/><rect x="1457" y="383" width="50" height="116" fill="#7A6857"/><rect x="1254" y="352" width="83" height="63" fill="#E8CFA8" opacity="0.85"/><rect x="1254" y="352" width="83" height="63" fill="none" stroke="#F0EBE4" stroke-width="2"/><line x1="1296" y1="352" x2="1296" y2="415" stroke="#F0EBE4" stroke-width="1.6"/><line x1="1254" y1="383" x2="1337" y2="383" stroke="#F0EBE4" stroke-width="1.6"/><rect x="1251" y="415" width="89" height="3" fill="#F0EBE4" opacity=".8"/><rect x="1362" y="352" width="83" height="63" fill="#6E6355" opacity="0.5"/><rect x="1362" y="352" width="83" height="63" fill="none" stroke="#F0EBE4" stroke-width="2"/><line x1="1403" y1="352" x2="1403" y2="415" stroke="#F0EBE4" stroke-width="1.6"/><line x1="1362" y1="383" x2="1445" y2="383" stroke="#F0EBE4" stroke-width="1.6"/><rect x="1359" y="415" width="89" height="3" fill="#F0EBE4" opacity=".8"/><rect x="1548" y="369" width="3" height="131" fill="#7A6857"/><circle cx="1346" cy="478" r="22" fill="#8E9280" opacity="0.85"/><circle cx="1354" cy="485" r="17" fill="#8E9280" opacity="0.85"/><circle cx="1321" cy="475" r="17" fill="#8E9280" opacity="0.85"/><circle cx="1322" cy="481" r="25" fill="#8E9280" opacity="0.85"/><rect y="602" width="1400" height="38" fill="#1A1A1A" opacity="0.1"/></svg>