<svg xmlns="http://www.w3.org/2000/svg" viewBox="0 0 1400 620" width="1400" height="620" role="img" preserveAspectRatio="xMidYMid slice"><rect width="1400" height="620" fill="#E6E0D7"/><polygon points="1190.0,-124.0 -1171,-422 -1167,-456" fill="#8B7355" opacity="0.070"/><polygon points="1190.0,-124.0 -1032,-977 -1019,-1009" fill="#8B7355" opacity="0.070"/><polygon points="1190.0,-124.0 -764,-1482 -745,-1510" fill="#8B7355" opacity="0.070"/><polygon points="1190.0,-124.0 -384,-1909 -358,-1932" fill="#8B7355" opacity="0.070"/><polygon points="1190.0,-124.0 87,-2233 118,-2249" fill="#8B7355" opacity="0.070"/><polygon points="1190.0,-124.0 622,-2435 656,-2443" fill="#8B7355" opacity="0.070"/><polygon points="1190.0,-124.0 1190,-2504 1224,-2504" fill="#8B7355" opacity="0.070"/><polygon points="1190.0,-124.0 1758,-2435 1791,-2427" fill="#8B7355" opacity="0.070"/><polygon points="1190.0,-124.0 2293,-2233 2323,-2217" fill="#8B7355" opacity="0.070"/><polygon points="1190.0,-124.0 2764,-1909 2790,-1886" fill="#8B7355" opacity="0.070"/><polygon points="1190.0,-124.0 3144,-1482 3164,-1454" fill="#8B7355" opacity="0.070"/><polygon points="1190.0,-124.0 3412,-977 3424,-945" fill="#8B7355" opacity="0.070"/><polygon points="1190.0,-124.0 3551,-422 3555,-388" fill="#8B7355" opacity="0.070"/><polygon points="-60,620 -60,303 55,201 170,303 170,620" fill="#1A1A1A" opacity="0.12"/><polygon points="133,620 133,417 338,339 543,417 543,620" fill="#1A1A1A" opacity="0.12"/><polygon points="423,620 423,332 575,203 727,332 727,620" fill="#1A1A1A" opacity="0.12"/><polygon points="629,620 629,348 794,240 959,348 959,620" fill="#1A1A1A" opacity="0.12"/><polygon points="843,620 843,379 993,267 1143,379 1143,620" fill="#1A1A1A" opacity="0.12"/><polygon points="1083,620 1083,414 1261,317 1440,414 1440,620" fill="#1A1A1A" opacity="0.12"/><polygon points="1322,620 1322,433 1467,359 1612,433 1612,620" fill="#1A1A1A" opacity="0.12"/><circle cx="44" cy="601" r="0.6" fill="#1A1A1A" opacity="0.040"/><circle cx="1392" cy="587" r="0.7" fill="#1A1A1A" opacity="0.040"/><circle cx="723" cy="247" r="0.9" fill="#1A1A1A" opacity="0.040"/><circle cx="1106" cy="513" r="0.7" fill="#1A1A1A" opacity="0.040"/><circle cx="761" cy="425" r="1.1" fill="#1A1A1A" opacity="0.040"/><circle cx="170" cy="242" r="0.9" fill="#1A1A1A" opacity="0.040"/><circle cx="1294" cy="510" r="1.1" fill="#1A1A1A" opacity="0.040"/><circle cx="392" cy="582" r="0.7" fill="#1A1A1A" opacity="0.040"/><circle cx="473" cy="97" r="1.0" fill="#1A1A1A" opacity="0.040"/><circle cx="1114" cy="435" r="1.3" fill="#1A1A1A" opacity="0.040"/><circle cx="983" cy="405" r="0.7" fill="#1A1A1A" opacity="0.040"/><circle cx="1342" cy="614" r="1.2" fill="#1A1A1A" opacity="0.040"/><circle cx="1396" cy="548" r="1.4" fill="#1A1A1A" opacity="0.040"/><circle cx="1060" cy="503" r="1.2" fill="#1A1A1A" opacity="0.040"/><circle cx="179" cy="519" r="0.8" fill="#1A1A1A" opacity="0.040"/><circle cx="901" cy="558" r="0.9" fill="#1A1A1A" opacity="0.040"/><circle cx="379" cy="343" r="1.4" fill="#1A1A1A" opacity="0.040"/><circle cx="1177" cy="616" r="1.4" fill="#1A1A1A" opacity="0.040"/><circle cx="1127" cy="301" r="0.6" fill="#1A1A1A" opacity="0.040"/><circle cx="1306" cy="24" r="1.4" fill="#1A1A1A" opacity="0.040"/><circle cx="895" cy="146" r="0.6" fill="#1A1A1A" opacity="0.040"/><circle cx="1004" cy="45" r="0.9" fill="#1A1A1A" opacity="0.040"/><circle cx="149" cy="84" r="0.7" fill="#1A1A1A" opacity="0.040"/><circle cx="914" cy="17" r="1.3" fill="#1A1A1A" opacity="0.040"/><circle cx="882" cy="160" r="1.2" fill="#1A1A1A" opacity="0.040"/><circle cx="88" cy="157" r="1.0" fill="#1A1A1A" opacity="0.040"/><circle cx="1196" cy="419" r="0.4" fill="#1A1A1A" opacity="0.040"/><circle cx="1342" cy="95" r="0.6" fill="#1A1A1A" opacity="0.040"/><circle cx="809" cy="44" r="0.9" fill="#1A1A1A" opacity="0.040"/><circle cx="296" cy="279" r="0.8" fill="#1A1A1A" opacity="0.040"/><circle cx="589" cy="211" r="0.9" fill="#1A1A1A" opacity="0.040"/><circle cx="920" cy="261" r="1.0" fill="#1A1A1A" opacity="0.040"/><circle cx="415" cy="246" r="0.5" fill="#1A1A1A" opacity="0.040"/><circle cx="641" cy="313" r="0.6" fill="#1A1A1A" opacity="0.040"/><circle cx="444" cy="345" r="0.9" fill="#1A1A1A" opacity="0.040"/><circle cx="884" cy="159" r="1.3" fill="#1A1A1A" opacity="0.040"/><circle cx="208" cy="570" r="0.8" fill="#1A1A1A" opacity="0.040"/><circle cx="378" cy="208" r="1.4" fill="#1A1A1A" opacity="0.040"/><circle cx="971" cy="585" r="1.5" fill="#1A1A1A" opacity="0.040"/><circle cx="650" cy="498" r="0.4" fill="#1A1A1A" opacity="0.040"/><circle cx="1138" cy="159" r="0.8" fill="#1A1A1A" opacity="0.040"/><circle cx="939" cy="315" r="1.0" fill="#1A1A1A" opacity="0.040"/><circle cx="448" cy="244" r="1.4" fill="#1A1A1A" opacity="0.040"/><circle cx="37" cy="13" r="1.1" fill="#1A1A1A" opacity="0.040"/><circle cx="115" cy="159" r="0.7" fill="#1A1A1A" opacity="0.040"/><circle cx="37" cy="242" r="1.5" fill="#1A1A1A" opacity="0.040"/><circle cx="1204" cy="26" r="1.5" fill="#1A1A1A" opacity="0.040"/><circle cx="1263" cy="532" r="0.6" fill="#1A1A1A" opacity="0.040"/><circle cx="445" cy="99" r="1.2" fill="#1A1A1A" opacity="0.040"/><circle cx="1005" cy="171" r="1.5" fill="#1A1A1A" opacity="0.040"/><circle cx="1018" cy="443" r="0.9" fill="#1A1A1A" opacity="0.040"/><circle cx="1200" cy="341" r="1.3" fill="#1A1A1A" opacity="0.040"/><circle cx="1280" cy="44" r="0.5" fill="#1A1A1A" opacity="0.040"/><circle cx="331" cy="572" r="0.8" fill="#1A1A1A" opacity="0.040"/><circle cx="528" cy="345" r="1.0" fill="#1A1A1A" opacity="0.040"/><circle cx="629" cy="508" r="0.9" fill="#1A1A1A" opacity="0.040"/><circle cx="1072" cy="84" r="1.2" fill="#1A1A1A" opacity="0.040"/><circle cx="651" cy="315" r="0.5" fill="#1A1A1A" opacity="0.040"/><circle cx="1218" cy="88" r="1.2" fill="#1A1A1A" opacity="0.040"/><circle cx="730" cy="7" r="1.5" fill="#1A1A1A" opacity="0.040"/><circle cx="1048" cy="63" r="0.6" fill="#1A1A1A" opacity="0.040"/><circle cx="1310" cy="281" r="1.0" fill="#1A1A1A" opacity="0.040"/><circle cx="587" cy="3" r="0.5" fill="#1A1A1A" opacity="0.040"/><circle cx="377" cy="79" r="0.8" fill="#1A1A1A" opacity="0.040"/><circle cx="548" cy="473" r="0.4" fill="#1A1A1A" opacity="0.040"/><circle cx="934" cy="155" r="1.1" fill="#1A1A1A" opacity="0.040"/><circle cx="478" cy="46" r="1.2" fill="#1A1A1A" opacity="0.040"/><circle cx="96" cy="506" r="0.8" fill="#1A1A1A" opacity="0.040"/><circle cx="159" cy="366" r="1.1" fill="#1A1A1A" opacity="0.040"/><circle cx="1384" cy="134" r="0.5" fill="#1A1A1A" opacity="0.040"/><circle cx="1295" cy="167" r="1.1" fill="#1A1A1A" opacity="0.040"/><circle cx="792" cy="609" r="1.1" fill="#1A1A1A" opacity="0.040"/><circle cx="1136" cy="115" r="1.3" fill="#1A1A1A" opacity="0.040"/><circle cx="676" cy="473" r="1.1" fill="#1A1A1A" opacity="0.040"/><circle cx="193" cy="250" r="1.1" fill="#1A1A1A" opacity="0.040"/><circle cx="264" cy="201" r="0.7" fill="#1A1A1A" opacity="0.040"/><circle cx="644" cy="544" r="1.4" fill="#1A1A1A" opacity="0.040"/><circle cx="899" cy="418" r="1.4" fill="#1A1A1A" opacity="0.040"/><circle cx="1206" cy="357" r="0.4" fill="#1A1A1A" opacity="0.040"/><circle cx="485" cy="167" r="1.1" fill="#1A1A1A" opacity="0.040"/><circle cx="557" cy="80" r="1.1" fill="#1A1A1A" opacity="0.040"/><circle cx="590" cy="295" r="1.4" fill="#1A1A1A" opacity="0.040"/><circle cx="1140" cy="82" r="1.0" fill="#1A1A1A" opacity="0.040"/><circle cx="960" cy="128" r="0.8" fill="#1A1A1A" opacity="0.040"/><circle cx="1109" cy="591" r="1.2" fill="#1A1A1A" opacity="0.040"/><circle cx="592" cy="417" r="1.4" fill="#1A1A1A" opacity="0.040"/><circle cx="126" cy="43" r="1.1" fill="#1A1A1A" opacity="0.040"/><circle cx="1317" cy="572" r="0.6" fill="#1A1A1A" opacity="0.040"/><circle cx="492" cy="467" r="0.8" fill="#1A1A1A" opacity="0.040"/><circle cx="238" cy="298" r="1.1" fill="#1A1A1A" opacity="0.040"/><circle cx="401" cy="454" r="1.0" fill="#1A1A1A" opacity="0.040"/><circle cx="644" cy="170" r="1.5" fill="#1A1A1A" opacity="0.040"/><circle cx="84" cy="196" r="0.8" fill="#1A1A1A" opacity="0.040"/><circle cx="648" cy="161" r="1.4" fill="#1A1A1A" opacity="0.040"/><circle cx="385" cy="501" r="1.0" fill="#1A1A1A" opacity="0.040"/><circle cx="1023" cy="528" r="0.9" fill="#1A1A1A" opacity="0.040"/><circle cx="52" cy="260" r="0.4" fill="#1A1A1A" opacity="0.040"/><circle cx="16" cy="47" r="0.5" fill="#1A1A1A" opacity="0.040"/><circle cx="1234" cy="467" r="0.7" fill="#1A1A1A" opacity="0.040"/><circle cx="111" cy="19" r="0.9" fill="#1A1A1A" opacity="0.040"/><circle cx="630" cy="560" r="0.8" fill="#1A1A1A" opacity="0.040"/><circle cx="787" cy="370" r="0.6" fill="#1A1A1A" opacity="0.040"/><circle cx="342" cy="133" r="0.8" fill="#1A1A1A" opacity="0.040"/><circle cx="870" cy="260" r="1.4" fill="#1A1A1A" opacity="0.040"/><circle cx="855" cy="136" r="0.8" fill="#1A1A1A" opacity="0.040"/><circle cx="1257" cy="11" r="0.8" fill="#1A1A1A" opacity="0.040"/><circle cx="657" cy="102" r="1.2" fill="#1A1A1A" opacity="0.040"/><circle cx="1328" cy="187" r="0.8" fill="#1A1A1A" opacity="0.040"/><circle cx="360" cy="435" r="0.4" fill="#1A1A1A" opacity="0.040"/><circle cx="652" cy="56" r="1.2" fill="#1A1A1A" opacity="0.040"/><circle cx="826" cy="344" r="1.2" fill="#1A1A1A" opacity="0.040"/><circle cx="208" cy="573" r="1.4" fill="#1A1A1A" opacity="0.040"/><circle cx="370" cy="353" r="1.0" fill="#1A1A1A" opacity="0.040"/><circle cx="1276" cy="389" r="0.9" fill="#1A1A1A" opacity="0.040"/><circle cx="266" cy="184" r="1.0" fill="#1A1A1A" opacity="0.040"/><circle cx="2" cy="219" r="0.8" fill="#1A1A1A" opacity="0.040"/><circle cx="921" cy="408" r="0.5" fill="#1A1A1A" opacity="0.040"/><circle cx="411" cy="520" r="0.5" fill="#1A1A1A" opacity="0.040"/><circle cx="512" cy="61" r="0.7" fill="#1A1A1A" opacity="0.040"/><circle cx="1362" cy="276" r="1.4" fill="#1A1A1A" opacity="0.040"/><circle cx="100" cy="380" r="1.0" fill="#1A1A1A" opacity="0.040"/><circle cx="346" cy="474" r="0.6" fill="#1A1A1A" opacity="0.040"/><circle cx="891" cy="405" r="0.5" fill="#1A1A1A" opacity="0.040"/><circle cx="821" cy="175" r="1.4" fill="#1A1A1A" opacity="0.040"/><circle cx="1299" cy="184" r="1.4" fill="#1A1A1A" opacity="0.040"/><circle cx="547" cy="281" r="1.0" fill="#1A1A1A" opacity="0.040"/><circle cx="974" cy="375" r="1.5" fill="#1A1A1A" opacity="0.040"/><circle cx="435" cy="532" r="0.5" fill="#1A1A1A" opacity="0.040"/><circle cx="652" cy="65" r="0.6" fill="#1A1A1A" opacity="0.040"/><circle cx="1314" cy="125" r="1.4" fill="#1A1A1A" opacity="0.040"/><circle cx="934" cy="262" r="1.0" fill="#1A1A1A" opacity="0.040"/><circle cx="767" cy="189" r="0.8" fill="#1A1A1A" opacity="0.040"/><circle cx="965" cy="402" r="0.6" fill="#1A1A1A" opacity="0.040"/><circle cx="469" cy="326" r="1.3" fill="#1A1A1A" opacity="0.040"/><circle cx="153" cy="508" r="1.2" fill="#1A1A1A" opacity="0.040"/><circle cx="772" cy="54" r="0.7" fill="#1A1A1A" opacity="0.040"/><circle cx="1089" cy="396" r="0.6" fill="#1A1A1A" opacity="0.040"/><circle cx="804" cy="222" r="1.3" fill="#1A1A1A" opacity="0.040"/><circle cx="103" cy="179" r="0.6" fill="#1A1A1A" opacity="0.040"/><circle cx="955" cy="511" r="1.5" fill="#1A1A1A" opacity="0.040"/><circle cx="618" cy="334" r="1.4" fill="#1A1A1A" opacity="0.040"/><circle cx="1327" cy="383" r="0.6" fill="#1A1A1A" opacity="0.040"/><circle cx="742" cy="390" r="1.3" fill="#1A1A1A" opacity="0.040"/><circle cx="245" cy="451" r="1.2" fill="#1A1A1A" opacity="0.040"/><circle cx="381" cy="138" r="1.5" fill="#1A1A1A" opacity="0.040"/><circle cx="489" cy="299" r="0.7" fill="#1A1A1A" opacity="0.040"/><circle cx="1" cy="323" r="1.1" fill="#1A1A1A" opacity="0.040"/><circle cx="379" cy="233" r="1.3" fill="#1A1A1A" opacity="0.040"/><circle cx="591" cy="234" r="0.7" fill="#1A1A1A" opacity="0.040"/><circle cx="788" cy="616" r="0.7" fill="#1A1A1A" opacity="0.040"/><circle cx="653" cy="142" r="0.6" fill="#1A1A1A" opacity="0.040"/><circle cx="477" cy="321" r="1.0" fill="#1A1A1A" opacity="0.040"/><circle cx="837" cy="421" r="0.6" fill="#1A1A1A" opacity="0.040"/><circle cx="223" cy="139" r="0.5" fill="#1A1A1A" opacity="0.040"/><circle cx="281" cy="92" r="1.3" fill="#1A1A1A" opacity="0.040"/><circle cx="677" cy="491" r="1.2" fill="#1A1A1A" opacity="0.040"/><circle cx="724" cy="595" r="1.0" fill="#1A1A1A" opacity="0.040"/><circle cx="438" cy="503" r="0.7" fill="#1A1A1A" opacity="0.040"/><circle cx="593" cy="414" r="1.0" fill="#1A1A1A" opacity="0.040"/><circle cx="254" cy="137" r="1.4" fill="#1A1A1A" opacity="0.040"/><circle cx="921" cy="570" r="0.4" fill="#1A1A1A" opacity="0.040"/><circle cx="116" cy="427" r="1.2" fill="#1A1A1A" opacity="0.040"/><circle cx="1146" cy="133" r="1.4" fill="#1A1A1A" opacity="0.040"/><circle cx="217" cy="175" r="0.9" fill="#1A1A1A" opacity="0.040"/><circle cx="581" cy="287" r="0.6" fill="#1A1A1A" opacity="0.040"/><circle cx="525" cy="407" r="1.5" fill="#1A1A1A" opacity="0.040"/><circle cx="369" cy="339" r="0.5" fill="#1A1A1A" opacity="0.040"/><circle cx="1058" cy="484" r="0.8" fill="#1A1A1A" opacity="0.040"/><circle cx="1256" cy="183" r="0.8" fill="#1A1A1A" opacity="0.040"/><circle cx="947" cy="566" r="0.9" fill="#1A1A1A" opacity="0.040"/><circle cx="142" cy="603" r="0.7" fill="#1A1A1A" opacity="0.040"/><circle cx="525" cy="399" r="0.8" fill="#1A1A1A" opacity="0.040"/><circle cx="968" cy="190" r="0.7" fill="#1A1A1A" opacity="0.040"/><circle cx="604" cy="80" r="0.5" fill="#1A1A1A" opacity="0.040"/><circle cx="993" cy="146" r="1.2" fill="#1A1A1A" opacity="0.040"/><circle cx="534" cy="148" r="0.7" fill="#1A1A1A" opacity="0.040"/><circle cx="596" cy="598" r="1.2" fill="#1A1A1A" opacity="0.040"/><circle cx="261" cy="379" r="1.1" fill="#1A1A1A" opacity="0.040"/><circle cx="240" cy="433" r="0.9" fill="#1A1A1A" opacity="0.040"/><circle cx="1376" cy="444" r="0.6" fill="#1A1A1A" opacity="0.040"/><circle cx="137" cy="481" r="1.0" fill="#1A1A1A" opacity="0.040"/><circle cx="561" cy="61" r="1.5" fill="#1A1A1A" opacity="0.040"/><circle cx="1360" cy="112" r="1.1" fill="#1A1A1A" opacity="0.040"/><circle cx="508" cy="506" r="1.1" fill="#1A1A1A" opacity="0.040"/><circle cx="1183" cy="503" r="1.5" fill="#1A1A1A" opacity="0.040"/><circle cx="834" cy="252" r="1.0" fill="#1A1A1A" opacity="0.040"/><circle cx="52" cy="79" r="0.5" fill="#1A1A1A" opacity="0.040"/><circle cx="505" cy="31" r="1.3" fill="#1A1A1A" opacity="0.040"/><circle cx="462" cy="20" r="0.6" fill="#1A1A1A" opacity="0.040"/><circle cx="1167" cy="164" r="1.0" fill="#1A1A1A" opacity="0.040"/><circle cx="859" cy="84" r="0.8" fill="#1A1A1A" opacity="0.040"/><circle cx="1071" cy="56" r="0.8" fill="#1A1A1A" opacity="0.040"/><circle cx="960" cy="377" r="1.2" fill="#1A1A1A" opacity="0.040"/><circle cx="585" cy="281" r="1.5" fill="#1A1A1A" opacity="0.040"/><circle cx="697" cy="507" r="1.3" fill="#1A1A1A" opacity="0.040"/><circle cx="1057" cy="269" r="0.9" fill="#1A1A1A" opacity="0.040"/><circle cx="1058" cy="162" r="1.1" fill="#1A1A1A" opacity="0.040"/><circle cx="713" cy="378" r="1.4" fill="#1A1A1A" opacity="0.040"/><circle cx="904" cy="497" r="1.4" fill="#1A1A1A" opacity="0.040"/><circle cx="283" cy="41" r="1.0" fill="#1A1A1A" opacity="0.040"/><circle cx="1194" cy="395" r="1.3" fill="#1A1A1A" opacity="0.040"/><circle cx="861" cy="461" r="0.5" fill="#1A1A1A" opacity="0.040"/><circle cx="1071" cy="32" r="0.4" fill="#1A1A1A" opacity="0.040"/><circle cx="698" cy="604" r="1.5" fill="#1A1A1A" opacity="0.040"/><circle cx="42" cy="610" r="0.6" fill="#1A1A1A" opacity="0.040"/><circle cx="35" cy="100" r="1.5" fill="#1A1A1A" opacity="0.040"/><circle cx="286" cy="576" r="1.3" fill="#1A1A1A" opacity="0.040"/><circle cx="599" cy="154" r="0.7" fill="#1A1A1A" opacity="0.040"/><circle cx="1342" cy="241" r="1.2" fill="#1A1A1A" opacity="0.040"/><circle cx="261" cy="34" r="0.9" fill="#1A1A1A" opacity="0.040"/><circle cx="710" cy="162" r="0.9" fill="#1A1A1A" opacity="0.040"/><circle cx="140" cy="528" r="0.9" fill="#1A1A1A" opacity="0.040"/><circle cx="334" cy="466" r="1.0" fill="#1A1A1A" opacity="0.040"/><circle cx="1371" cy="442" r="1.5" fill="#1A1A1A" opacity="0.040"/><circle cx="298" cy="56" r="1.1" fill="#1A1A1A" opacity="0.040"/><circle cx="516" cy="57" r="0.7" fill="#1A1A1A" opacity="0.040"/><circle cx="125" cy="209" r="1.2" fill="#1A1A1A" opacity="0.040"/><circle cx="466" cy="107" r="1.5" fill="#1A1A1A" opacity="0.040"/><circle cx="733" cy="498" r="0.9" fill="#1A1A1A" opacity="0.040"/><circle cx="615" cy="137" r="0.8" fill="#1A1A1A" opacity="0.040"/><circle cx="1342" cy="335" r="0.5" fill="#1A1A1A" opacity="0.040"/><circle cx="954" cy="484" r="0.6" fill="#1A1A1A" opacity="0.040"/><circle cx="207" cy="460" r="0.7" fill="#1A1A1A" opacity="0.040"/><circle cx="1207" cy="510" r="0.6" fill="#1A1A1A" opacity="0.040"/><circle cx="55" cy="311" r="0.5" fill="#1A1A1A" opacity="0.040"/><circle cx="812" cy="445" r="0.8" fill="#1A1A1A" opacity="0.040"/><circle cx="488" cy="79" r="1.4" fill="#1A1A1A" opacity="0.040"/><circle cx="1181" cy="447" r="1.1" fill="#1A1A1A" opacity="0.040"/><circle cx="1219" cy="21" r="0.6" fill="#1A1A1A" opacity="0.040"/><circle cx="839" cy="156" r="0.6" fill="#1A1A1A" opacity="0.040"/><circle cx="435" cy="330" r="1.2" fill="#1A1A1A" opacity="0.040"/><circle cx="1173" cy="560" r="1.5" fill="#1A1A1A" opacity="0.040"/><circle cx="1011" cy="16" r="1.2" fill="#1A1A1A" opacity="0.040"/><circle cx="1263" cy="93" r="1.4" fill="#1A1A1A" opacity="0.040"/><circle cx="1215" cy="271" r="0.4" fill="#1A1A1A" opacity="0.040"/><circle cx="647" cy="279" r="0.6" fill="#1A1A1A" opacity="0.040"/><circle cx="1285" cy="504" r="1.1" fill="#1A1A1A" opacity="0.040"/><circle cx="573" cy="488" r="0.7" fill="#1A1A1A" opacity="0.040"/><circle cx="727" cy="20" r="1.3" fill="#1A1A1A" opacity="0.040"/><circle cx="378" cy="206" r="1.3" fill="#1A1A1A" opacity="0.040"/><circle cx="1047" cy="331" r="0.7" fill="#1A1A1A" opacity="0.040"/><circle cx="741" cy="124" r="1.4" fill="#1A1A1A" opacity="0.040"/><circle cx="379" cy="536" r="0.9" fill="#1A1A1A" opacity="0.040"/><circle cx="494" cy="430" r="0.6" fill="#1A1A1A" opacity="0.040"/><circle cx="417" cy="163" r="1.5" fill="#1A1A1A" opacity="0.040"/><circle cx="612" cy="24" r="1.2" fill="#1A1A1A" opacity="0.040"/><circle cx="6" cy="121" r="1.3" fill="#1A1A1A" opacity="0.040"/><circle cx="1167" cy="410" r="0.7" fill="#1A1A1A" opacity="0.040"/><circle cx="60" cy="133" r="0.5" fill="#1A1A1A" opacity="0.040"/><circle cx="147" cy="406" r="1.1" fill="#1A1A1A" opacity="0.040"/><circle cx="161" cy="166" r="1.1" fill="#1A1A1A" opacity="0.040"/><circle cx="1123" cy="208" r="0.6" fill="#1A1A1A" opacity="0.040"/><circle cx="183" cy="434" r="1.2" fill="#1A1A1A" opacity="0.040"/><circle cx="1282" cy="530" r="0.9" fill="#1A1A1A" opacity="0.040"/><circle cx="162" cy="287" r="1.3" fill="#1A1A1A" opacity="0.040"/><circle cx="1369" cy="259" r="0.7" fill="#1A1A1A" opacity="0.040"/><circle cx="1344" cy="364" r="0.5" fill="#1A1A1A" opacity="0.040"/><circle cx="1123" cy="82" r="1.3" fill="#1A1A1A" opacity="0.040"/><circle cx="1026" cy="548" r="1.0" fill="#1A1A1A" opacity="0.040"/><circle cx="165" cy="13" r="0.4" fill="#1A1A1A" opacity="0.040"/></svg>