<svg xmlns="http://www.w3.org/2000/svg" viewBox="0 0 1600 1100" width="1600" height="1100" role="img" preserveAspectRatio="xMidYMid slice"><rect width="1600" height="1100" fill="#1A1A1A"/><defs><linearGradient id="g" x1="0" y1="0" x2=".35" y2="1"><stop offset="0" stop-color="#2A2724"/><stop offset="1" stop-color="#1A1A1A"/></linearGradient></defs><rect width="1600" height="1100" fill="url(#g)"/><polygon points="1248.0,66.0 -1451,-275 -1445,-314" fill="#8B7355" opacity="0.085"/><polygon points="1248.0,66.0 -1323,-821 -1310,-858" fill="#8B7355" opacity="0.085"/><polygon points="1248.0,66.0 -1087,-1329 -1067,-1363" fill="#8B7355" opacity="0.085"/><polygon points="1248.0,66.0 -751,-1778 -725,-1807" fill="#8B7355" opacity="0.085"/><polygon points="1248.0,66.0 -331,-2149 -299,-2171" fill="#8B7355" opacity="0.085"/><polygon points="1248.0,66.0 157,-2425 193,-2441" fill="#8B7355" opacity="0.085"/><polygon points="1248.0,66.0 690,-2596 729,-2604" fill="#8B7355" opacity="0.085"/><polygon points="1248.0,66.0 1248,-2654 1287,-2654" fill="#8B7355" opacity="0.085"/><polygon points="1248.0,66.0 1806,-2596 1844,-2588" fill="#8B7355" opacity="0.085"/><polygon points="1248.0,66.0 2339,-2425 2375,-2409" fill="#8B7355" opacity="0.085"/><polygon points="1248.0,66.0 2827,-2149 2859,-2126" fill="#8B7355" opacity="0.085"/><polygon points="1248.0,66.0 3247,-1778 3274,-1749" fill="#8B7355" opacity="0.085"/><polygon points="1248.0,66.0 3583,-1329 3603,-1295" fill="#8B7355" opacity="0.085"/><polygon points="1248.0,66.0 3819,-821 3832,-784" fill="#8B7355" opacity="0.085"/><polygon points="1248.0,66.0 3947,-275 3951,-236" fill="#8B7355" opacity="0.085"/><polygon points="-60,1100 -60,771 104,636 269,771 269,1100" fill="#F0EBE4" opacity="0.09"/><polygon points="149,1100 149,709 337,596 525,709 525,1100" fill="#F0EBE4" opacity="0.09"/><polygon points="424,1100 424,690 556,569 688,690 688,1100" fill="#F0EBE4" opacity="0.09"/><polygon points="593,1100 593,578 769,418 944,578 944,1100" fill="#F0EBE4" opacity="0.09"/><polygon points="828,1100 828,543 1026,323 1225,543 1225,1100" fill="#F0EBE4" opacity="0.09"/><polygon points="1109,1100 1109,801 1346,665 1583,801 1583,1100" fill="#F0EBE4" opacity="0.09"/><polygon points="1433,1100 1433,780 1577,671 1721,780 1721,1100" fill="#F0EBE4" opacity="0.09"/><rect y="946" width="1600" height="154" fill="#1A1A1A" opacity=".5"/><g transform="translate(650.0,400.0) scale(3.0)" fill="#F0EBE4" stroke="#F0EBE4" stroke-width="3" stroke-linejoin="round" opacity="0.05"><path d="M20 21 L27 14 H33 V86 H27 L20 79 Z"/><path d="M80 21 L73 14 H67 V86 H73 L80 79 Z"/><rect x="39" y="44" width="22" height="12"/></g><circle cx="381" cy="599" r="0.8" fill="#1A1A1A" opacity="0.050"/><circle cx="966" cy="688" r="0.5" fill="#1A1A1A" opacity="0.050"/><circle cx="21" cy="921" r="0.7" fill="#1A1A1A" opacity="0.050"/><circle cx="375" cy="1095" r="0.9" fill="#1A1A1A" opacity="0.050"/><circle cx="1338" cy="524" r="1.1" fill="#1A1A1A" opacity="0.050"/><circle cx="241" cy="698" r="1.4" fill="#1A1A1A" opacity="0.050"/><circle cx="837" cy="815" r="1.1" fill="#1A1A1A" opacity="0.050"/><circle cx="102" cy="834" r="1.1" fill="#1A1A1A" opacity="0.050"/><circle cx="482" cy="34" r="1.4" fill="#1A1A1A" opacity="0.050"/><circle cx="756" cy="791" r="1.4" fill="#1A1A1A" opacity="0.050"/><circle cx="1143" cy="1013" r="0.8" fill="#1A1A1A" opacity="0.050"/><circle cx="1281" cy="489" r="1.4" fill="#1A1A1A" opacity="0.050"/><circle cx="1406" cy="107" r="0.5" fill="#1A1A1A" opacity="0.050"/><circle cx="347" cy="1062" r="0.9" fill="#1A1A1A" opacity="0.050"/><circle cx="1003" cy="331" r="1.0" fill="#1A1A1A" opacity="0.050"/><circle cx="617" cy="386" r="1.0" fill="#1A1A1A" opacity="0.050"/><circle cx="935" cy="995" r="1.2" fill="#1A1A1A" opacity="0.050"/><circle cx="1486" cy="942" r="1.5" fill="#1A1A1A" opacity="0.050"/><circle cx="1074" cy="179" r="1.3" fill="#1A1A1A" opacity="0.050"/><circle cx="1543" cy="995" r="1.0" fill="#1A1A1A" opacity="0.050"/><circle cx="1142" cy="232" r="1.3" fill="#1A1A1A" opacity="0.050"/><circle cx="918" cy="313" r="0.5" fill="#1A1A1A" opacity="0.050"/><circle cx="1366" cy="1089" r="0.5" fill="#1A1A1A" opacity="0.050"/><circle cx="1281" cy="452" r="0.6" fill="#1A1A1A" opacity="0.050"/><circle cx="470" cy="846" r="1.4" fill="#1A1A1A" opacity="0.050"/><circle cx="71" cy="676" r="0.4" fill="#1A1A1A" opacity="0.050"/><circle cx="1150" cy="364" r="1.4" fill="#1A1A1A" opacity="0.050"/><circle cx="1569" cy="556" r="1.5" fill="#1A1A1A" opacity="0.050"/><circle cx="495" cy="85" r="1.1" fill="#1A1A1A" opacity="0.050"/><circle cx="50" cy="217" r="0.8" fill="#1A1A1A" opacity="0.050"/><circle cx="977" cy="172" r="0.4" fill="#1A1A1A" opacity="0.050"/><circle cx="1388" cy="345" r="1.5" fill="#1A1A1A" opacity="0.050"/><circle cx="1435" cy="416" r="0.9" fill="#1A1A1A" opacity="0.050"/><circle cx="832" cy="708" r="1.1" fill="#1A1A1A" opacity="0.050"/><circle cx="895" cy="682" r="1.4" fill="#1A1A1A" opacity="0.050"/><circle cx="811" cy="474" r="1.2" fill="#1A1A1A" opacity="0.050"/><circle cx="380" cy="331" r="1.5" fill="#1A1A1A" opacity="0.050"/><circle cx="834" cy="603" r="0.4" fill="#1A1A1A" opacity="0.050"/><circle cx="664" cy="638" r="0.4" fill="#1A1A1A" opacity="0.050"/><circle cx="985" cy="695" r="0.5" fill="#1A1A1A" opacity="0.050"/><circle cx="1004" cy="513" r="1.1" fill="#1A1A1A" opacity="0.050"/><circle cx="564" cy="778" r="1.2" fill="#1A1A1A" opacity="0.050"/><circle cx="35" cy="67" r="1.1" fill="#1A1A1A" opacity="0.050"/><circle cx="1541" cy="276" r="0.9" fill="#1A1A1A" opacity="0.050"/><circle cx="948" cy="352" r="0.8" fill="#1A1A1A" opacity="0.050"/><circle cx="500" cy="406" r="1.1" fill="#1A1A1A" opacity="0.050"/><circle cx="481" cy="415" r="1.2" fill="#1A1A1A" opacity="0.050"/><circle cx="43" cy="626" r="1.2" fill="#1A1A1A" opacity="0.050"/><circle cx="496" cy="245" r="1.3" fill="#1A1A1A" opacity="0.050"/><circle cx="382" cy="206" r="0.9" fill="#1A1A1A" opacity="0.050"/><circle cx="1117" cy="112" r="0.8" fill="#1A1A1A" opacity="0.050"/><circle cx="534" cy="917" r="0.9" fill="#1A1A1A" opacity="0.050"/><circle cx="1369" cy="186" r="0.8" fill="#1A1A1A" opacity="0.050"/><circle cx="1040" cy="973" r="0.9" fill="#1A1A1A" opacity="0.050"/><circle cx="360" cy="133" r="1.0" fill="#1A1A1A" opacity="0.050"/><circle cx="305" cy="887" r="1.3" fill="#1A1A1A" opacity="0.050"/><circle cx="294" cy="306" r="1.3" fill="#1A1A1A" opacity="0.050"/><circle cx="1027" cy="887" r="0.8" fill="#1A1A1A" opacity="0.050"/><circle cx="208" cy="321" r="1.3" fill="#1A1A1A" opacity="0.050"/><circle cx="434" cy="381" r="0.9" fill="#1A1A1A" opacity="0.050"/><circle cx="672" cy="450" r="1.4" fill="#1A1A1A" opacity="0.050"/><circle cx="250" cy="5" r="1.4" fill="#1A1A1A" opacity="0.050"/><circle cx="1408" cy="1086" r="0.9" fill="#1A1A1A" opacity="0.050"/><circle cx="1520" cy="1020" r="0.6" fill="#1A1A1A" opacity="0.050"/><circle cx="1193" cy="920" r="1.1" fill="#1A1A1A" opacity="0.050"/><circle cx="830" cy="318" r="0.8" fill="#1A1A1A" opacity="0.050"/><circle cx="364" cy="75" r="1.0" fill="#1A1A1A" opacity="0.050"/><circle cx="459" cy="891" r="0.4" fill="#1A1A1A" opacity="0.050"/><circle cx="1446" cy="763" r="1.4" fill="#1A1A1A" opacity="0.050"/><circle cx="1435" cy="990" r="1.0" fill="#1A1A1A" opacity="0.050"/><circle cx="21" cy="820" r="0.6" fill="#1A1A1A" opacity="0.050"/><circle cx="480" cy="729" r="1.0" fill="#1A1A1A" opacity="0.050"/><circle cx="662" cy="1033" r="1.1" fill="#1A1A1A" opacity="0.050"/><circle cx="546" cy="278" r="1.3" fill="#1A1A1A" opacity="0.050"/><circle cx="764" cy="861" r="0.8" fill="#1A1A1A" opacity="0.050"/><circle cx="316" cy="588" r="1.3" fill="#1A1A1A" opacity="0.050"/><circle cx="274" cy="871" r="1.4" fill="#1A1A1A" opacity="0.050"/><circle cx="1290" cy="906" r="0.4" fill="#1A1A1A" opacity="0.050"/><circle cx="1006" cy="949" r="0.5" fill="#1A1A1A" opacity="0.050"/><circle cx="434" cy="295" r="1.0" fill="#1A1A1A" opacity="0.050"/><circle cx="677" cy="520" r="1.3" fill="#1A1A1A" opacity="0.050"/><circle cx="3" cy="60" r="0.5" fill="#1A1A1A" opacity="0.050"/><circle cx="199" cy="75" r="1.5" fill="#1A1A1A" opacity="0.050"/><circle cx="1367" cy="95" r="1.0" fill="#1A1A1A" opacity="0.050"/><circle cx="505" cy="346" r="0.8" fill="#1A1A1A" opacity="0.050"/><circle cx="1035" cy="645" r="0.8" fill="#1A1A1A" opacity="0.050"/><circle cx="306" cy="362" r="0.5" fill="#1A1A1A" opacity="0.050"/><circle cx="889" cy="788" r="0.8" fill="#1A1A1A" opacity="0.050"/><circle cx="128" cy="196" r="0.8" fill="#1A1A1A" opacity="0.050"/><circle cx="967" cy="861" r="0.8" fill="#1A1A1A" opacity="0.050"/><circle cx="1282" cy="685" r="0.9" fill="#1A1A1A" opacity="0.050"/><circle cx="596" cy="546" r="1.2" fill="#1A1A1A" opacity="0.050"/><circle cx="673" cy="764" r="0.9" fill="#1A1A1A" opacity="0.050"/><circle cx="392" cy="589" r="1.2" fill="#1A1A1A" opacity="0.050"/><circle cx="115" cy="467" r="0.9" fill="#1A1A1A" opacity="0.050"/><circle cx="1407" cy="1030" r="0.8" fill="#1A1A1A" opacity="0.050"/><circle cx="1437" cy="870" r="0.7" fill="#1A1A1A" opacity="0.050"/><circle cx="743" cy="135" r="1.3" fill="#1A1A1A" opacity="0.050"/><circle cx="1060" cy="976" r="1.3" fill="#1A1A1A" opacity="0.050"/><circle cx="1068" cy="807" r="1.0" fill="#1A1A1A" opacity="0.050"/><circle cx="165" cy="647" r="0.4" fill="#1A1A1A" opacity="0.050"/><circle cx="230" cy="852" r="0.4" fill="#1A1A1A" opacity="0.050"/><circle cx="147" cy="109" r="1.4" fill="#1A1A1A" opacity="0.050"/><circle cx="287" cy="26" r="1.3" fill="#1A1A1A" opacity="0.050"/><circle cx="194" cy="928" r="1.1" fill="#1A1A1A" opacity="0.050"/><circle cx="1338" cy="1048" r="1.0" fill="#1A1A1A" opacity="0.050"/><circle cx="1278" cy="40" r="1.2" fill="#1A1A1A" opacity="0.050"/><circle cx="818" cy="787" r="0.5" fill="#1A1A1A" opacity="0.050"/><circle cx="1198" cy="1028" r="0.5" fill="#1A1A1A" opacity="0.050"/><circle cx="519" cy="620" r="1.3" fill="#1A1A1A" opacity="0.050"/><circle cx="387" cy="198" r="0.7" fill="#1A1A1A" opacity="0.050"/><circle cx="986" cy="829" r="0.8" fill="#1A1A1A" opacity="0.050"/><circle cx="588" cy="436" r="0.8" fill="#1A1A1A" opacity="0.050"/><circle cx="669" cy="92" r="1.0" fill="#1A1A1A" opacity="0.050"/><circle cx="1557" cy="454" r="1.2" fill="#1A1A1A" opacity="0.050"/><circle cx="257" cy="760" r="1.2" fill="#1A1A1A" opacity="0.050"/><circle cx="1078" cy="569" r="0.9" fill="#1A1A1A" opacity="0.050"/><circle cx="1029" cy="987" r="0.6" fill="#1A1A1A" opacity="0.050"/><circle cx="153" cy="823" r="1.4" fill="#1A1A1A" opacity="0.050"/><circle cx="828" cy="487" r="1.2" fill="#1A1A1A" opacity="0.050"/><circle cx="298" cy="294" r="0.6" fill="#1A1A1A" opacity="0.050"/><circle cx="937" cy="346" r="0.7" fill="#1A1A1A" opacity="0.050"/><circle cx="1106" cy="1049" r="0.7" fill="#1A1A1A" opacity="0.050"/><circle cx="1129" cy="455" r="1.3" fill="#1A1A1A" opacity="0.050"/><circle cx="935" cy="294" r="0.6" fill="#1A1A1A" opacity="0.050"/><circle cx="37" cy="527" r="0.8" fill="#1A1A1A" opacity="0.050"/><circle cx="276" cy="397" r="0.8" fill="#1A1A1A" opacity="0.050"/><circle cx="1239" cy="158" r="1.5" fill="#1A1A1A" opacity="0.050"/><circle cx="767" cy="659" r="0.9" fill="#1A1A1A" opacity="0.050"/><circle cx="1335" cy="904" r="1.0" fill="#1A1A1A" opacity="0.050"/><circle cx="770" cy="793" r="1.3" fill="#1A1A1A" opacity="0.050"/><circle cx="640" cy="807" r="1.5" fill="#1A1A1A" opacity="0.050"/><circle cx="748" cy="253" r="0.7" fill="#1A1A1A" opacity="0.050"/><circle cx="1148" cy="743" r="1.5" fill="#1A1A1A" opacity="0.050"/><circle cx="1366" cy="266" r="0.6" fill="#1A1A1A" opacity="0.050"/><circle cx="414" cy="206" r="1.2" fill="#1A1A1A" opacity="0.050"/><circle cx="1374" cy="990" r="0.7" fill="#1A1A1A" opacity="0.050"/><circle cx="1384" cy="345" r="0.9" fill="#1A1A1A" opacity="0.050"/><circle cx="1166" cy="95" r="0.5" fill="#1A1A1A" opacity="0.050"/><circle cx="1334" cy="321" r="0.8" fill="#1A1A1A" opacity="0.050"/><circle cx="928" cy="743" r="0.4" fill="#1A1A1A" opacity="0.050"/><circle cx="536" cy="480" r="0.9" fill="#1A1A1A" opacity="0.050"/><circle cx="336" cy="644" r="1.5" fill="#1A1A1A" opacity="0.050"/><circle cx="625" cy="599" r="0.5" fill="#1A1A1A" opacity="0.050"/><circle cx="440" cy="732" r="0.5" fill="#1A1A1A" opacity="0.050"/><circle cx="1420" cy="1000" r="0.5" fill="#1A1A1A" opacity="0.050"/><circle cx="1506" cy="412" r="1.2" fill="#1A1A1A" opacity="0.050"/><circle cx="1212" cy="325" r="1.1" fill="#1A1A1A" opacity="0.050"/><circle cx="1047" cy="887" r="0.7" fill="#1A1A1A" opacity="0.050"/><circle cx="1207" cy="1057" r="1.1" fill="#1A1A1A" opacity="0.050"/><circle cx="858" cy="125" r="0.9" fill="#1A1A1A" opacity="0.050"/><circle cx="563" cy="790" r="1.1" fill="#1A1A1A" opacity="0.050"/><circle cx="906" cy="200" r="1.1" fill="#1A1A1A" opacity="0.050"/><circle cx="1009" cy="197" r="1.4" fill="#1A1A1A" opacity="0.050"/><circle cx="1049" cy="135" r="1.4" fill="#1A1A1A" opacity="0.050"/><circle cx="226" cy="365" r="1.2" fill="#1A1A1A" opacity="0.050"/><circle cx="956" cy="610" r="1.1" fill="#1A1A1A" opacity="0.050"/><circle cx="732" cy="344" r="0.6" fill="#1A1A1A" opacity="0.050"/><circle cx="110" cy="787" r="1.2" fill="#1A1A1A" opacity="0.050"/><circle cx="869" cy="814" r="0.8" fill="#1A1A1A" opacity="0.050"/><circle cx="425" cy="422" r="1.4" fill="#1A1A1A" opacity="0.050"/><circle cx="67" cy="555" r="0.7" fill="#1A1A1A" opacity="0.050"/><circle cx="1230" cy="390" r="0.8" fill="#1A1A1A" opacity="0.050"/><circle cx="645" cy="596" r="1.2" fill="#1A1A1A" opacity="0.050"/><circle cx="565" cy="932" r="0.5" fill="#1A1A1A" opacity="0.050"/><circle cx="433" cy="110" r="0.5" fill="#1A1A1A" opacity="0.050"/><circle cx="1246" cy="800" r="0.6" fill="#1A1A1A" opacity="0.050"/><circle cx="303" cy="458" r="1.2" fill="#1A1A1A" opacity="0.050"/><circle cx="1305" cy="824" r="1.1" fill="#1A1A1A" opacity="0.050"/><circle cx="234" cy="438" r="0.6" fill="#1A1A1A" opacity="0.050"/><circle cx="844" cy="625" r="0.6" fill="#1A1A1A" opacity="0.050"/><circle cx="400" cy="860" r="0.4" fill="#1A1A1A" opacity="0.050"/><circle cx="1285" cy="980" r="1.4" fill="#1A1A1A" opacity="0.050"/><circle cx="613" cy="608" r="1.0" fill="#1A1A1A" opacity="0.050"/><circle cx="1014" cy="1075" r="1.2" fill="#1A1A1A" opacity="0.050"/><circle cx="479" cy="946" r="0.9" fill="#1A1A1A" opacity="0.050"/><circle cx="962" cy="800" r="0.4" fill="#1A1A1A" opacity="0.050"/><circle cx="1233" cy="728" r="0.9" fill="#1A1A1A" opacity="0.050"/><circle cx="838" cy="507" r="0.6" fill="#1A1A1A" opacity="0.050"/><circle cx="847" cy="41" r="1.0" fill="#1A1A1A" opacity="0.050"/><circle cx="1034" cy="489" r="1.0" fill="#1A1A1A" opacity="0.050"/><circle cx="1534" cy="981" r="0.5" fill="#1A1A1A" opacity="0.050"/><circle cx="1268" cy="686" r="0.5" fill="#1A1A1A" opacity="0.050"/><circle cx="576" cy="257" r="0.5" fill="#1A1A1A" opacity="0.050"/><circle cx="862" cy="1023" r="0.8" fill="#1A1A1A" opacity="0.050"/><circle cx="1393" cy="764" r="0.5" fill="#1A1A1A" opacity="0.050"/><circle cx="1373" cy="661" r="1.4" fill="#1A1A1A" opacity="0.050"/><circle cx="1146" cy="814" r="0.8" fill="#1A1A1A" opacity="0.050"/><circle cx="1291" cy="1025" r="1.3" fill="#1A1A1A" opacity="0.050"/><circle cx="699" cy="833" r="0.9" fill="#1A1A1A" opacity="0.050"/><circle cx="175" cy="47" r="0.5" fill="#1A1A1A" opacity="0.050"/><circle cx="320" cy="177" r="0.9" fill="#1A1A1A" opacity="0.050"/><circle cx="1119" cy="591" r="0.9" fill="#1A1A1A" opacity="0.050"/><circle cx="1039" cy="335" r="0.9" fill="#1A1A1A" opacity="0.050"/><circle cx="1211" cy="442" r="0.6" fill="#1A1A1A" opacity="0.050"/><circle cx="1439" cy="792" r="0.8" fill="#1A1A1A" opacity="0.050"/><circle cx="594" cy="582" r="1.1" fill="#1A1A1A" opacity="0.050"/><circle cx="358" cy="3" r="0.6" fill="#1A1A1A" opacity="0.050"/><circle cx="1253" cy="158" r="0.9" fill="#1A1A1A" opacity="0.050"/><circle cx="312" cy="230" r="0.6" fill="#1A1A1A" opacity="0.050"/><circle cx="646" cy="185" r="0.4" fill="#1A1A1A" opacity="0.050"/><circle cx="176" cy="185" r="0.9" fill="#1A1A1A" opacity="0.050"/><circle cx="96" cy="25" r="0.9" fill="#1A1A1A" opacity="0.050"/><circle cx="652" cy="774" r="0.5" fill="#1A1A1A" opacity="0.050"/><circle cx="645" cy="436" r="0.4" fill="#1A1A1A" opacity="0.050"/><circle cx="1545" cy="241" r="0.5" fill="#1A1A1A" opacity="0.050"/><circle cx="759" cy="181" r="1.1" fill="#1A1A1A" opacity="0.050"/><circle cx="554" cy="136" r="0.5" fill="#1A1A1A" opacity="0.050"/><circle cx="1164" cy="303" r="1.3" fill="#1A1A1A" opacity="0.050"/><circle cx="745" cy="1026" r="0.7" fill="#1A1A1A" opacity="0.050"/><circle cx="400" cy="292" r="1.3" fill="#1A1A1A" opacity="0.050"/><circle cx="1007" cy="379" r="0.5" fill="#1A1A1A" opacity="0.050"/><circle cx="1092" cy="1066" r="1.1" fill="#1A1A1A" opacity="0.050"/><circle cx="6" cy="33" r="0.5" fill="#1A1A1A" opacity="0.050"/><circle cx="273" cy="40" r="0.5" fill="#1A1A1A" opacity="0.050"/><circle cx="1047" cy="990" r="0.6" fill="#1A1A1A" opacity="0.050"/><circle cx="1558" cy="525" r="1.3" fill="#1A1A1A" opacity="0.050"/><circle cx="1468" cy="1034" r="0.4" fill="#1A1A1A" opacity="0.050"/><circle cx="488" cy="668" r="1.4" fill="#1A1A1A" opacity="0.050"/><circle cx="140" cy="323" r="1.3" fill="#1A1A1A" opacity="0.050"/><circle cx="183" cy="429" r="0.8" fill="#1A1A1A" opacity="0.050"/><circle cx="1088" cy="1021" r="0.6" fill="#1A1A1A" opacity="0.050"/><circle cx="1184" cy="807" r="1.3" fill="#1A1A1A" opacity="0.050"/><circle cx="885" cy="1016" r="0.8" fill="#1A1A1A" opacity="0.050"/><circle cx="664" cy="252" r="1.3" fill="#1A1A1A" opacity="0.050"/><circle cx="769" cy="296" r="0.6" fill="#1A1A1A" opacity="0.050"/><circle cx="1153" cy="666" r="1.2" fill="#1A1A1A" opacity="0.050"/><circle cx="619" cy="536" r="0.6" fill="#1A1A1A" opacity="0.050"/><circle cx="1137" cy="25" r="0.9" fill="#1A1A1A" opacity="0.050"/><circle cx="1214" cy="745" r="0.5" fill="#1A1A1A" opacity="0.050"/><circle cx="379" cy="928" r="1.1" fill="#1A1A1A" opacity="0.050"/><circle cx="1406" cy="959" r="0.9" fill="#1A1A1A" opacity="0.050"/><circle cx="1435" cy="806" r="0.8" fill="#1A1A1A" opacity="0.050"/><circle cx="592" cy="79" r="0.8" fill="#1A1A1A" opacity="0.050"/><circle cx="1529" cy="115" r="1.0" fill="#1A1A1A" opacity="0.050"/><circle cx="176" cy="89" r="1.1" fill="#1A1A1A" opacity="0.050"/><circle cx="385" cy="54" r="0.6" fill="#1A1A1A" opacity="0.050"/><circle cx="1031" cy="644" r="0.4" fill="#1A1A1A" opacity="0.050"/><circle cx="368" cy="1064" r="0.6" fill="#1A1A1A" opacity="0.050"/><circle cx="900" cy="462" r="1.3" fill="#1A1A1A" opacity="0.050"/><circle cx="967" cy="868" r="1.0" fill="#1A1A1A" opacity="0.050"/><circle cx="301" cy="195" r="0.5" fill="#1A1A1A" opacity="0.050"/><circle cx="1321" cy="124" r="0.4" fill="#1A1A1A" opacity="0.050"/><circle cx="1546" cy="219" r="1.4" fill="#1A1A1A" opacity="0.050"/><circle cx="137" cy="512" r="0.6" fill="#1A1A1A" opacity="0.050"/><circle cx="1327" cy="677" r="1.1" fill="#1A1A1A" opacity="0.050"/><circle cx="1218" cy="959" r="0.8" fill="#1A1A1A" opacity="0.050"/><circle cx="965" cy="490" r="0.5" fill="#1A1A1A" opacity="0.050"/><circle cx="1337" cy="654" r="1.3" fill="#1A1A1A" opacity="0.050"/><circle cx="330" cy="593" r="0.9" fill="#1A1A1A" opacity="0.050"/><circle cx="1165" cy="85" r="0.8" fill="#1A1A1A" opacity="0.050"/><circle cx="775" cy="79" r="1.0" fill="#1A1A1A" opacity="0.050"/><circle cx="1177" cy="465" r="1.1" fill="#1A1A1A" opacity="0.050"/><circle cx="969" cy="236" r="0.8" fill="#1A1A1A" opacity="0.050"/><circle cx="1593" cy="369" r="0.9" fill="#1A1A1A" opacity="0.050"/><circle cx="135" cy="240" r="0.6" fill="#1A1A1A" opacity="0.050"/><circle cx="1489" cy="799" r="1.4" fill="#1A1A1A" opacity="0.050"/><circle cx="1579" cy="673" r="1.4" fill="#1A1A1A" opacity="0.050"/><circle cx="857" cy="461" r="1.4" fill="#1A1A1A" opacity="0.050"/><circle cx="1445" cy="1045" r="0.9" fill="#1A1A1A" opacity="0.050"/><circle cx="1238" cy="448" r="1.5" fill="#1A1A1A" opacity="0.050"/><circle cx="1472" cy="321" r="1.4" fill="#1A1A1A" opacity="0.050"/><circle cx="295" cy="105" r="1.2" fill="#1A1A1A" opacity="0.050"/><circle cx="471" cy="571" r="1.1" fill="#1A1A1A" opacity="0.050"/><circle cx="65" cy="820" r="0.7" fill="#1A1A1A" opacity="0.050"/><circle cx="692" cy="379" r="1.2" fill="#1A1A1A" opacity="0.050"/><circle cx="1195" cy="316" r="0.5" fill="#1A1A1A" opacity="0.050"/><circle cx="479" cy="452" r="0.5" fill="#1A1A1A" opacity="0.050"/><circle cx="245" cy="839" r="1.2" fill="#1A1A1A" opacity="0.050"/><circle cx="1562" cy="1078" r="1.4" fill="#1A1A1A" opacity="0.050"/><circle cx="596" cy="177" r="0.7" fill="#1A1A1A" opacity="0.050"/><circle cx="741" cy="579" r="1.0" fill="#1A1A1A" opacity="0.050"/><circle cx="576" cy="938" r="0.7" fill="#1A1A1A" opacity="0.050"/><circle cx="741" cy="975" r="1.3" fill="#1A1A1A" opacity="0.050"/><circle cx="476" cy="267" r="1.3" fill="#1A1A1A" opacity="0.050"/><circle cx="16" cy="145" r="1.0" fill="#1A1A1A" opacity="0.050"/><circle cx="857" cy="182" r="0.5" fill="#1A1A1A" opacity="0.050"/><circle cx="326" cy="847" r="0.9" fill="#1A1A1A" opacity="0.050"/><circle cx="1567" cy="864" r="1.5" fill="#1A1A1A" opacity="0.050"/><circle cx="56" cy="204" r="0.4" fill="#1A1A1A" opacity="0.050"/><circle cx="692" cy="372" r="0.5" fill="#1A1A1A" opacity="0.050"/><circle cx="874" cy="103" r="0.7" fill="#1A1A1A" opacity="0.050"/><circle cx="396" cy="882" r="0.9" fill="#1A1A1A" opacity="0.050"/><circle cx="417" cy="48" r="0.9" fill="#1A1A1A" opacity="0.050"/><circle cx="1004" cy="743" r="1.4" fill="#1A1A1A" opacity="0.050"/><circle cx="1294" cy="272" r="0.5" fill="#1A1A1A" opacity="0.050"/><circle cx="1213" cy="868" r="1.0" fill="#1A1A1A" opacity="0.050"/><circle cx="1330" cy="607" r="0.7" fill="#1A1A1A" opacity="0.050"/><circle cx="270" cy="19" r="1.1" fill="#1A1A1A" opacity="0.050"/><circle cx="1435" cy="997" r="0.9" fill="#1A1A1A" opacity="0.050"/><circle cx="1065" cy="1021" r="1.3" fill="#1A1A1A" opacity="0.050"/><circle cx="964" cy="456" r="1.0" fill="#1A1A1A" opacity="0.050"/><circle cx="273" cy="201" r="1.2" fill="#1A1A1A" opacity="0.050"/><circle cx="1587" cy="602" r="0.8" fill="#1A1A1A" opacity="0.050"/><circle cx="563" cy="500" r="1.3" fill="#1A1A1A" opacity="0.050"/><circle cx="724" cy="1055" r="0.6" fill="#1A1A1A" opacity="0.050"/><circle cx="504" cy="574" r="0.9" fill="#1A1A1A" opacity="0.050"/><circle cx="1362" cy="910" r="1.4" fill="#1A1A1A" opacity="0.050"/><circle cx="980" cy="34" r="1.0" fill="#1A1A1A" opacity="0.050"/><circle cx="880" cy="536" r="0.7" fill="#1A1A1A" opacity="0.050"/><circle cx="1135" cy="1003" r="0.5" fill="#1A1A1A" opacity="0.050"/><circle cx="1070" cy="408" r="1.0" fill="#1A1A1A" opacity="0.050"/><circle cx="1433" cy="1056" r="1.1" fill="#1A1A1A" opacity="0.050"/><circle cx="312" cy="1013" r="0.6" fill="#1A1A1A" opacity="0.050"/><circle cx="613" cy="911" r="0.7" fill="#1A1A1A" opacity="0.050"/><circle cx="433" cy="1045" r="1.4" fill="#1A1A1A" opacity="0.050"/><circle cx="508" cy="432" r="0.7" fill="#1A1A1A" opacity="0.050"/><circle cx="210" cy="275" r="1.5" fill="#1A1A1A" opacity="0.050"/><circle cx="127" cy="253" r="0.6" fill="#1A1A1A" opacity="0.050"/><circle cx="127" cy="579" r="1.2" fill="#1A1A1A" opacity="0.050"/><circle cx="1341" cy="694" r="1.3" fill="#1A1A1A" opacity="0.050"/><circle cx="9" cy="310" r="1.5" fill="#1A1A1A" opacity="0.050"/><circle cx="111" cy="294" r="0.9" fill="#1A1A1A" opacity="0.050"/><circle cx="429" cy="601" r="0.5" fill="#1A1A1A" opacity="0.050"/><circle cx="378" cy="1053" r="0.6" fill="#1A1A1A" opacity="0.050"/><circle cx="1449" cy="196" r="1.5" fill="#1A1A1A" opacity="0.050"/><circle cx="1079" cy="712" r="0.6" fill="#1A1A1A" opacity="0.050"/><circle cx="87" cy="835" r="0.6" fill="#1A1A1A" opacity="0.050"/><circle cx="303" cy="905" r="1.4" fill="#1A1A1A" opacity="0.050"/><circle cx="78" cy="1057" r="1.0" fill="#1A1A1A" opacity="0.050"/><circle cx="612" cy="118" r="0.8" fill="#1A1A1A" opacity="0.050"/><circle cx="1580" cy="309" r="0.5" fill="#1A1A1A" opacity="0.050"/><circle cx="232" cy="140" r="0.8" fill="#1A1A1A" opacity="0.050"/><circle cx="1464" cy="85" r="0.6" fill="#1A1A1A" opacity="0.050"/><circle cx="1503" cy="1097" r="1.5" fill="#1A1A1A" opacity="0.050"/><circle cx="394" cy="390" r="1.4" fill="#1A1A1A" opacity="0.050"/><circle cx="776" cy="774" r="0.7" fill="#1A1A1A" opacity="0.050"/><circle cx="34" cy="380" r="1.2" fill="#1A1A1A" opacity="0.050"/><circle cx="1251" cy="626" r="0.9" fill="#1A1A1A" opacity="0.050"/><circle cx="861" cy="487" r="1.0" fill="#1A1A1A" opacity="0.050"/><circle cx="1333" cy="221" r="1.1" fill="#1A1A1A" opacity="0.050"/><circle cx="1492" cy="933" r="0.6" fill="#1A1A1A" opacity="0.050"/><circle cx="1542" cy="924" r="0.6" fill="#1A1A1A" opacity="0.050"/><circle cx="425" cy="223" r="0.5" fill="#1A1A1A" opacity="0.050"/><circle cx="1565" cy="450" r="1.4" fill="#1A1A1A" opacity="0.050"/><circle cx="183" cy="15" r="1.4" fill="#1A1A1A" opacity="0.050"/><circle cx="1270" cy="1091" r="1.2" fill="#1A1A1A" opacity="0.050"/><circle cx="840" cy="843" r="0.5" fill="#1A1A1A" opacity="0.050"/><circle cx="865" cy="485" r="0.6" fill="#1A1A1A" opacity="0.050"/><circle cx="961" cy="355" r="1.0" fill="#1A1A1A" opacity="0.050"/><circle cx="598" cy="350" r="0.8" fill="#1A1A1A" opacity="0.050"/><circle cx="962" cy="1079" r="1.4" fill="#1A1A1A" opacity="0.050"/><circle cx="1379" cy="919" r="0.7" fill="#1A1A1A" opacity="0.050"/><circle cx="1563" cy="297" r="0.5" fill="#1A1A1A" opacity="0.050"/><circle cx="801" cy="805" r="0.8" fill="#1A1A1A" opacity="0.050"/><circle cx="1032" cy="311" r="1.5" fill="#1A1A1A" opacity="0.050"/><circle cx="725" cy="526" r="1.0" fill="#1A1A1A" opacity="0.050"/><circle cx="1400" cy="1085" r="1.0" fill="#1A1A1A" opacity="0.050"/><circle cx="706" cy="680" r="0.5" fill="#1A1A1A" opacity="0.050"/><circle cx="681" cy="932" r="1.3" fill="#1A1A1A" opacity="0.050"/><circle cx="95" cy="940" r="0.8" fill="#1A1A1A" opacity="0.050"/><circle cx="1570" cy="403" r="0.6" fill="#1A1A1A" opacity="0.050"/><circle cx="878" cy="972" r="0.9" fill="#1A1A1A" opacity="0.050"/><circle cx="1388" cy="783" r="0.8" fill="#1A1A1A" opacity="0.050"/><circle cx="481" cy="556" r="0.8" fill="#1A1A1A" opacity="0.050"/><circle cx="596" cy="717" r="1.4" fill="#1A1A1A" opacity="0.050"/><circle cx="935" cy="161" r="0.6" fill="#1A1A1A" opacity="0.050"/><circle cx="593" cy="676" r="0.6" fill="#1A1A1A" opacity="0.050"/><circle cx="130" cy="353" r="0.7" fill="#1A1A1A" opacity="0.050"/><circle cx="47" cy="593" r="1.4" fill="#1A1A1A" opacity="0.050"/><circle cx="855" cy="811" r="1.3" fill="#1A1A1A" opacity="0.050"/><circle cx="1340" cy="1004" r="0.9" fill="#1A1A1A" opacity="0.050"/><circle cx="1092" cy="133" r="1.4" fill="#1A1A1A" opacity="0.050"/><circle cx="605" cy="523" r="1.4" fill="#1A1A1A" opacity="0.050"/><circle cx="459" cy="209" r="1.3" fill="#1A1A1A" opacity="0.050"/><circle cx="958" cy="93" r="0.4" fill="#1A1A1A" opacity="0.050"/><circle cx="562" cy="8" r="1.3" fill="#1A1A1A" opacity="0.050"/><circle cx="294" cy="302" r="0.8" fill="#1A1A1A" opacity="0.050"/><circle cx="819" cy="476" r="1.1" fill="#1A1A1A" opacity="0.050"/><circle cx="1056" cy="480" r="0.5" fill="#1A1A1A" opacity="0.050"/><circle cx="1567" cy="760" r="0.5" fill="#1A1A1A" opacity="0.050"/><circle cx="707" cy="829" r="1.5" fill="#1A1A1A" opacity="0.050"/><circle cx="106" cy="10" r="0.9" fill="#1A1A1A" opacity="0.050"/><circle cx="675" cy="984" r="1.3" fill="#1A1A1A" opacity="0.050"/><circle cx="531" cy="461" r="1.0" fill="#1A1A1A" opacity="0.050"/><circle cx="1415" cy="222" r="0.8" fill="#1A1A1A" opacity="0.050"/><circle cx="142" cy="705" r="0.4" fill="#1A1A1A" opacity="0.050"/><circle cx="1496" cy="576" r="1.0" fill="#1A1A1A" opacity="0.050"/><circle cx="136" cy="255" r="0.9" fill="#1A1A1A" opacity="0.050"/><circle cx="1372" cy="593" r="0.7" fill="#1A1A1A" opacity="0.050"/><circle cx="1571" cy="728" r="1.0" fill="#1A1A1A" opacity="0.050"/><circle cx="324" cy="328" r="1.4" fill="#1A1A1A" opacity="0.050"/><circle cx="213" cy="585" r="1.1" fill="#1A1A1A" opacity="0.050"/><circle cx="568" cy="846" r="1.4" fill="#1A1A1A" opacity="0.050"/><circle cx="1372" cy="812" r="0.6" fill="#1A1A1A" opacity="0.050"/><circle cx="96" cy="476" r="0.7" fill="#1A1A1A" opacity="0.050"/><circle cx="310" cy="959" r="0.6" fill="#1A1A1A" opacity="0.050"/><circle cx="1316" cy="1031" r="0.5" fill="#1A1A1A" opacity="0.050"/><circle cx="1462" cy="437" r="0.6" fill="#1A1A1A" opacity="0.050"/><circle cx="298" cy="41" r="0.9" fill="#1A1A1A" opacity="0.050"/><circle cx="615" cy="937" r="1.3" fill="#1A1A1A" opacity="0.050"/><circle cx="91" cy="441" r="0.8" fill="#1A1A1A" opacity="0.050"/><circle cx="284" cy="276" r="0.7" fill="#1A1A1A" opacity="0.050"/><circle cx="1111" cy="374" r="0.5" fill="#1A1A1A" opacity="0.050"/><circle cx="353" cy="486" r="1.0" fill="#1A1A1A" opacity="0.050"/><circle cx="393" cy="770" r="0.6" fill="#1A1A1A" opacity="0.050"/><circle cx="1073" cy="670" r="0.6" fill="#1A1A1A" opacity="0.050"/><circle cx="1202" cy="434" r="1.0" fill="#1A1A1A" opacity="0.050"/><circle cx="956" cy="691" r="0.9" fill="#1A1A1A" opacity="0.050"/><circle cx="90" cy="865" r="1.3" fill="#1A1A1A" opacity="0.050"/><circle cx="784" cy="637" r="0.7" fill="#1A1A1A" opacity="0.050"/><circle cx="1438" cy="754" r="0.6" fill="#1A1A1A" opacity="0.050"/><circle cx="1308" cy="1085" r="0.8" fill="#1A1A1A" opacity="0.050"/><circle cx="1593" cy="531" r="0.6" fill="#1A1A1A" opacity="0.050"/><circle cx="1147" cy="373" r="1.2" fill="#1A1A1A" opacity="0.050"/><circle cx="934" cy="118" r="1.0" fill="#1A1A1A" opacity="0.050"/><circle cx="1361" cy="526" r="1.0" fill="#1A1A1A" opacity="0.050"/><circle cx="1381" cy="491" r="0.9" fill="#1A1A1A" opacity="0.050"/><circle cx="932" cy="906" r="0.6" fill="#1A1A1A" opacity="0.050"/><circle cx="150" cy="837" r="1.0" fill="#1A1A1A" opacity="0.050"/><circle cx="484" cy="981" r="1.4" fill="#1A1A1A" opacity="0.050"/><circle cx="866" cy="1087" r="1.3" fill="#1A1A1A" opacity="0.050"/><circle cx="1197" cy="320" r="0.4" fill="#1A1A1A" opacity="0.050"/><circle cx="1086" cy="809" r="0.8" fill="#1A1A1A" opacity="0.050"/><circle cx="766" cy="624" r="0.7" fill="#1A1A1A" opacity="0.050"/><circle cx="1116" cy="619" r="0.8" fill="#1A1A1A" opacity="0.050"/><circle cx="175" cy="609" r="0.8" fill="#1A1A1A" opacity="0.050"/><circle cx="1160" cy="190" r="0.8" fill="#1A1A1A" opacity="0.050"/><circle cx="314" cy="449" r="1.0" fill="#1A1A1A" opacity="0.050"/><circle cx="171" cy="60" r="0.9" fill="#1A1A1A" opacity="0.050"/></svg>