<svg xmlns="http://www.w3.org/2000/svg" viewBox="0 0 1200 630" width="1200" height="630" role="img" preserveAspectRatio="xMidYMid slice"><defs><linearGradient id="og" x1="0" y1="0" x2="0" y2="1"><stop offset="0" stop-color="#2E2822"/><stop offset="1" stop-color="#191614"/></linearGradient><radialGradient id="ogs"><stop offset="0" stop-color="#E8CFA8" stop-opacity=".95"/><stop offset="1" stop-color="#E8CFA8" stop-opacity="0"/></radialGradient></defs><rect width="1200" height="630" fill="url(#og)"/><circle cx="983.9999999999999" cy="126.0" r="441.0" fill="url(#ogs)"/><path d="M-20,916.6 L-20,503 L35,486 L89,465 L144,474 L198,445 L253,435 L307,435 L362,438 L416,464 L471,445 L525,455 L580,497 L635,452 L689,499 L744,468 L798,439 L853,428 L907,444 L962,466 L1016,448 L1071,445 L1125,442 L1180,460 L1235,466 L1240,916.6 Z" fill="#3A342C" opacity="0.8"/><g transform="translate(92,239.0) scale(1.52)" fill="#F0EBE4" stroke="#F0EBE4" stroke-width="3" stroke-linejoin="round" opacity="1.0"><path d="M20 21 L27 14 H33 V86 H27 L20 79 Z"/><path d="M80 21 L73 14 H67 V86 H73 L80 79 Z"/><rect x="39" y="44" width="22" height="12"/></g><rect x="282" y="275" width="1" height="80" fill="#8B7355"/><text x="322" y="335" font-family="Red Hat Display,Arial,sans-serif" font-weight="900" font-size="70" letter-spacing="18" fill="#F0EBE4">HARDT</text><text x="94" y="566" font-family="Georgia,serif" font-style="italic" font-size="29" fill="#8B7355">Every situation has a way forward.</text></svg>