<svg xmlns="http://www.w3.org/2000/svg" viewBox="0 0 900 1150" width="900" height="1150" role="img" preserveAspectRatio="xMidYMid slice"><rect width="900" height="1150" fill="#26231F"/><polygon points="90.0,23.0 -1850,-222 -1846,-250" fill="#8B7355" opacity="0.075"/><polygon points="90.0,23.0 -1699,-765 -1688,-790" fill="#8B7355" opacity="0.075"/><polygon points="90.0,23.0 -1401,-1242 -1382,-1263" fill="#8B7355" opacity="0.075"/><polygon points="90.0,23.0 -978,-1614 -954,-1630" fill="#8B7355" opacity="0.075"/><polygon points="90.0,23.0 -467,-1851 -440,-1859" fill="#8B7355" opacity="0.075"/><polygon points="90.0,23.0 90,-1932 118,-1932" fill="#8B7355" opacity="0.075"/><polygon points="90.0,23.0 647,-1851 674,-1843" fill="#8B7355" opacity="0.075"/><polygon points="90.0,23.0 1158,-1614 1182,-1599" fill="#8B7355" opacity="0.075"/><polygon points="90.0,23.0 1581,-1242 1599,-1220" fill="#8B7355" opacity="0.075"/><polygon points="90.0,23.0 1879,-765 1890,-739" fill="#8B7355" opacity="0.075"/><polygon points="90.0,23.0 2030,-222 2033,-194" fill="#8B7355" opacity="0.075"/><rect y="713" width="900" height="437" fill="#000" opacity=".22"/><g transform="translate(340.0,460.0) scale(2.2)" fill="#F0EBE4" stroke="#F0EBE4" stroke-width="3" stroke-linejoin="round" opacity="0.1"><path d="M20 21 L27 14 H33 V86 H27 L20 79 Z"/><path d="M80 21 L73 14 H67 V86 H73 L80 79 Z"/><rect x="39" y="44" width="22" height="12"/></g><circle cx="445" cy="640" r="1.3" fill="#1A1A1A" opacity="0.060"/><circle cx="289" cy="369" r="1.2" fill="#1A1A1A" opacity="0.060"/><circle cx="438" cy="413" r="0.8" fill="#1A1A1A" opacity="0.060"/><circle cx="297" cy="193" r="1.1" fill="#1A1A1A" opacity="0.060"/><circle cx="804" cy="792" r="1.1" fill="#1A1A1A" opacity="0.060"/><circle cx="304" cy="499" r="0.6" fill="#1A1A1A" opacity="0.060"/><circle cx="656" cy="341" r="0.7" fill="#1A1A1A" opacity="0.060"/><circle cx="883" cy="391" r="1.5" fill="#1A1A1A" opacity="0.060"/><circle cx="556" cy="875" r="1.1" fill="#1A1A1A" opacity="0.060"/><circle cx="161" cy="820" r="0.7" fill="#1A1A1A" opacity="0.060"/><circle cx="367" cy="150" r="0.5" fill="#1A1A1A" opacity="0.060"/><circle cx="331" cy="16" r="0.8" fill="#1A1A1A" opacity="0.060"/><circle cx="765" cy="1148" r="0.9" fill="#1A1A1A" opacity="0.060"/><circle cx="97" cy="398" r="0.5" fill="#1A1A1A" opacity="0.060"/><circle cx="196" cy="715" r="1.1" fill="#1A1A1A" opacity="0.060"/><circle cx="28" cy="561" r="0.9" fill="#1A1A1A" opacity="0.060"/><circle cx="358" cy="155" r="0.8" fill="#1A1A1A" opacity="0.060"/><circle cx="92" cy="789" r="1.1" fill="#1A1A1A" opacity="0.060"/><circle cx="566" cy="469" r="1.5" fill="#1A1A1A" opacity="0.060"/><circle cx="332" cy="234" r="0.8" fill="#1A1A1A" opacity="0.060"/><circle cx="821" cy="182" r="1.2" fill="#1A1A1A" opacity="0.060"/><circle cx="844" cy="980" r="0.9" fill="#1A1A1A" opacity="0.060"/><circle cx="405" cy="1002" r="1.2" fill="#1A1A1A" opacity="0.060"/><circle cx="726" cy="205" r="1.1" fill="#1A1A1A" opacity="0.060"/><circle cx="664" cy="274" r="0.6" fill="#1A1A1A" opacity="0.060"/><circle cx="757" cy="653" r="0.9" fill="#1A1A1A" opacity="0.060"/><circle cx="437" cy="296" r="0.7" fill="#1A1A1A" opacity="0.060"/><circle cx="96" cy="462" r="0.6" fill="#1A1A1A" opacity="0.060"/><circle cx="807" cy="1099" r="1.1" fill="#1A1A1A" opacity="0.060"/><circle cx="81" cy="688" r="0.6" fill="#1A1A1A" opacity="0.060"/><circle cx="334" cy="147" r="0.9" fill="#1A1A1A" opacity="0.060"/><circle cx="68" cy="322" r="0.7" fill="#1A1A1A" opacity="0.060"/><circle cx="420" cy="1070" r="1.0" fill="#1A1A1A" opacity="0.060"/><circle cx="704" cy="834" r="1.0" fill="#1A1A1A" opacity="0.060"/><circle cx="61" cy="67" r="0.5" fill="#1A1A1A" opacity="0.060"/><circle cx="465" cy="391" r="1.4" fill="#1A1A1A" opacity="0.060"/><circle cx="180" cy="151" r="1.1" fill="#1A1A1A" opacity="0.060"/><circle cx="546" cy="61" r="0.8" fill="#1A1A1A" opacity="0.060"/><circle cx="400" cy="946" r="1.3" fill="#1A1A1A" opacity="0.060"/><circle cx="786" cy="616" r="1.4" fill="#1A1A1A" opacity="0.060"/><circle cx="423" cy="332" r="0.6" fill="#1A1A1A" opacity="0.060"/><circle cx="749" cy="748" r="1.1" fill="#1A1A1A" opacity="0.060"/><circle cx="880" cy="727" r="0.7" fill="#1A1A1A" opacity="0.060"/><circle cx="625" cy="1065" r="0.6" fill="#1A1A1A" opacity="0.060"/><circle cx="849" cy="479" r="0.5" fill="#1A1A1A" opacity="0.060"/><circle cx="457" cy="898" r="0.9" fill="#1A1A1A" opacity="0.060"/><circle cx="242" cy="883" r="0.5" fill="#1A1A1A" opacity="0.060"/><circle cx="604" cy="416" r="1.1" fill="#1A1A1A" opacity="0.060"/><circle cx="456" cy="322" r="0.6" fill="#1A1A1A" opacity="0.060"/><circle cx="738" cy="525" r="0.7" fill="#1A1A1A" opacity="0.060"/><circle cx="533" cy="883" r="0.5" fill="#1A1A1A" opacity="0.060"/><circle cx="412" cy="175" r="1.2" fill="#1A1A1A" opacity="0.060"/><circle cx="41" cy="957" r="1.0" fill="#1A1A1A" opacity="0.060"/><circle cx="465" cy="618" r="0.7" fill="#1A1A1A" opacity="0.060"/><circle cx="407" cy="196" r="0.8" fill="#1A1A1A" opacity="0.060"/><circle cx="536" cy="703" r="0.8" fill="#1A1A1A" opacity="0.060"/><circle cx="554" cy="903" r="1.3" fill="#1A1A1A" opacity="0.060"/><circle cx="3" cy="576" r="0.6" fill="#1A1A1A" opacity="0.060"/><circle cx="737" cy="670" r="0.9" fill="#1A1A1A" opacity="0.060"/><circle cx="549" cy="588" r="0.6" fill="#1A1A1A" opacity="0.060"/><circle cx="823" cy="65" r="0.4" fill="#1A1A1A" opacity="0.060"/><circle cx="264" cy="163" r="0.8" fill="#1A1A1A" opacity="0.060"/><circle cx="554" cy="449" r="1.5" fill="#1A1A1A" opacity="0.060"/><circle cx="294" cy="1081" r="1.5" fill="#1A1A1A" opacity="0.060"/><circle cx="493" cy="927" r="0.5" fill="#1A1A1A" opacity="0.060"/><circle cx="840" cy="508" r="0.8" fill="#1A1A1A" opacity="0.060"/><circle cx="829" cy="461" r="0.5" fill="#1A1A1A" opacity="0.060"/><circle cx="25" cy="919" r="0.6" fill="#1A1A1A" opacity="0.060"/><circle cx="572" cy="100" r="1.3" fill="#1A1A1A" opacity="0.060"/><circle cx="872" cy="423" r="1.3" fill="#1A1A1A" opacity="0.060"/><circle cx="808" cy="269" r="0.9" fill="#1A1A1A" opacity="0.060"/><circle cx="898" cy="1095" r="1.0" fill="#1A1A1A" opacity="0.060"/><circle cx="494" cy="24" r="1.3" fill="#1A1A1A" opacity="0.060"/><circle cx="852" cy="649" r="0.7" fill="#1A1A1A" opacity="0.060"/><circle cx="114" cy="730" r="1.2" fill="#1A1A1A" opacity="0.060"/><circle cx="538" cy="966" r="0.4" fill="#1A1A1A" opacity="0.060"/><circle cx="6" cy="118" r="0.7" fill="#1A1A1A" opacity="0.060"/><circle cx="44" cy="278" r="0.6" fill="#1A1A1A" opacity="0.060"/><circle cx="732" cy="606" r="0.6" fill="#1A1A1A" opacity="0.060"/><circle cx="456" cy="178" r="1.5" fill="#1A1A1A" opacity="0.060"/><circle cx="82" cy="274" r="1.0" fill="#1A1A1A" opacity="0.060"/><circle cx="805" cy="754" r="0.6" fill="#1A1A1A" opacity="0.060"/><circle cx="548" cy="850" r="1.4" fill="#1A1A1A" opacity="0.060"/><circle cx="574" cy="288" r="1.3" fill="#1A1A1A" opacity="0.060"/><circle cx="629" cy="1026" r="0.6" fill="#1A1A1A" opacity="0.060"/><circle cx="753" cy="552" r="0.6" fill="#1A1A1A" opacity="0.060"/><circle cx="229" cy="114" r="1.4" fill="#1A1A1A" opacity="0.060"/><circle cx="129" cy="728" r="0.7" fill="#1A1A1A" opacity="0.060"/><circle cx="225" cy="405" r="1.3" fill="#1A1A1A" opacity="0.060"/><circle cx="60" cy="449" r="0.8" fill="#1A1A1A" opacity="0.060"/><circle cx="437" cy="717" r="1.4" fill="#1A1A1A" opacity="0.060"/><circle cx="572" cy="981" r="1.4" fill="#1A1A1A" opacity="0.060"/><circle cx="732" cy="29" r="0.5" fill="#1A1A1A" opacity="0.060"/><circle cx="471" cy="226" r="0.8" fill="#1A1A1A" opacity="0.060"/><circle cx="477" cy="611" r="1.2" fill="#1A1A1A" opacity="0.060"/><circle cx="695" cy="251" r="1.0" fill="#1A1A1A" opacity="0.060"/><circle cx="425" cy="511" r="1.2" fill="#1A1A1A" opacity="0.060"/><circle cx="643" cy="813" r="0.8" fill="#1A1A1A" opacity="0.060"/><circle cx="76" cy="672" r="0.7" fill="#1A1A1A" opacity="0.060"/><circle cx="279" cy="115" r="0.5" fill="#1A1A1A" opacity="0.060"/><circle cx="400" cy="1105" r="1.1" fill="#1A1A1A" opacity="0.060"/><circle cx="228" cy="1094" r="0.6" fill="#1A1A1A" opacity="0.060"/><circle cx="608" cy="82" r="1.5" fill="#1A1A1A" opacity="0.060"/><circle cx="820" cy="963" r="0.8" fill="#1A1A1A" opacity="0.060"/><circle cx="407" cy="571" r="1.4" fill="#1A1A1A" opacity="0.060"/><circle cx="524" cy="285" r="1.4" fill="#1A1A1A" opacity="0.060"/><circle cx="380" cy="839" r="1.4" fill="#1A1A1A" opacity="0.060"/><circle cx="696" cy="143" r="1.3" fill="#1A1A1A" opacity="0.060"/><circle cx="406" cy="1147" r="0.8" fill="#1A1A1A" opacity="0.060"/><circle cx="159" cy="135" r="1.5" fill="#1A1A1A" opacity="0.060"/><circle cx="387" cy="16" r="1.0" fill="#1A1A1A" opacity="0.060"/><circle cx="863" cy="243" r="1.4" fill="#1A1A1A" opacity="0.060"/><circle cx="897" cy="235" r="0.6" fill="#1A1A1A" opacity="0.060"/><circle cx="131" cy="114" r="0.4" fill="#1A1A1A" opacity="0.060"/><circle cx="196" cy="920" r="0.9" fill="#1A1A1A" opacity="0.060"/><circle cx="371" cy="717" r="0.6" fill="#1A1A1A" opacity="0.060"/><circle cx="699" cy="288" r="1.0" fill="#1A1A1A" opacity="0.060"/><circle cx="197" cy="297" r="0.6" fill="#1A1A1A" opacity="0.060"/><circle cx="353" cy="499" r="0.5" fill="#1A1A1A" opacity="0.060"/><circle cx="749" cy="384" r="1.1" fill="#1A1A1A" opacity="0.060"/><circle cx="171" cy="49" r="1.5" fill="#1A1A1A" opacity="0.060"/><circle cx="216" cy="14" r="1.4" fill="#1A1A1A" opacity="0.060"/><circle cx="383" cy="7" r="1.1" fill="#1A1A1A" opacity="0.060"/><circle cx="304" cy="1114" r="1.3" fill="#1A1A1A" opacity="0.060"/><circle cx="596" cy="807" r="0.8" fill="#1A1A1A" opacity="0.060"/><circle cx="826" cy="1073" r="0.7" fill="#1A1A1A" opacity="0.060"/><circle cx="46" cy="73" r="1.0" fill="#1A1A1A" opacity="0.060"/><circle cx="557" cy="927" r="1.4" fill="#1A1A1A" opacity="0.060"/><circle cx="345" cy="510" r="0.8" fill="#1A1A1A" opacity="0.060"/><circle cx="815" cy="251" r="0.5" fill="#1A1A1A" opacity="0.060"/><circle cx="177" cy="1061" r="0.6" fill="#1A1A1A" opacity="0.060"/><circle cx="895" cy="286" r="0.8" fill="#1A1A1A" opacity="0.060"/><circle cx="163" cy="1120" r="0.5" fill="#1A1A1A" opacity="0.060"/><circle cx="145" cy="796" r="0.9" fill="#1A1A1A" opacity="0.060"/><circle cx="352" cy="523" r="1.4" fill="#1A1A1A" opacity="0.060"/><circle cx="135" cy="639" r="0.6" fill="#1A1A1A" opacity="0.060"/><circle cx="447" cy="444" r="0.9" fill="#1A1A1A" opacity="0.060"/><circle cx="281" cy="15" r="0.6" fill="#1A1A1A" opacity="0.060"/><circle cx="660" cy="444" r="0.5" fill="#1A1A1A" opacity="0.060"/><circle cx="96" cy="832" r="0.6" fill="#1A1A1A" opacity="0.060"/><circle cx="847" cy="602" r="0.5" fill="#1A1A1A" opacity="0.060"/><circle cx="288" cy="715" r="1.5" fill="#1A1A1A" opacity="0.060"/><circle cx="825" cy="267" r="1.1" fill="#1A1A1A" opacity="0.060"/><circle cx="517" cy="1014" r="0.6" fill="#1A1A1A" opacity="0.060"/><circle cx="465" cy="666" r="0.9" fill="#1A1A1A" opacity="0.060"/><circle cx="425" cy="22" r="0.6" fill="#1A1A1A" opacity="0.060"/><circle cx="858" cy="353" r="1.5" fill="#1A1A1A" opacity="0.060"/><circle cx="10" cy="5" r="1.3" fill="#1A1A1A" opacity="0.060"/><circle cx="266" cy="982" r="0.4" fill="#1A1A1A" opacity="0.060"/><circle cx="548" cy="959" r="0.7" fill="#1A1A1A" opacity="0.060"/><circle cx="770" cy="835" r="1.3" fill="#1A1A1A" opacity="0.060"/><circle cx="336" cy="216" r="0.8" fill="#1A1A1A" opacity="0.060"/><circle cx="289" cy="276" r="1.4" fill="#1A1A1A" opacity="0.060"/><circle cx="158" cy="727" r="0.9" fill="#1A1A1A" opacity="0.060"/><circle cx="424" cy="572" r="0.9" fill="#1A1A1A" opacity="0.060"/><circle cx="853" cy="774" r="1.3" fill="#1A1A1A" opacity="0.060"/><circle cx="224" cy="587" r="1.2" fill="#1A1A1A" opacity="0.060"/><circle cx="623" cy="936" r="0.4" fill="#1A1A1A" opacity="0.060"/><circle cx="88" cy="932" r="0.8" fill="#1A1A1A" opacity="0.060"/><circle cx="198" cy="504" r="0.6" fill="#1A1A1A" opacity="0.060"/><circle cx="663" cy="476" r="1.3" fill="#1A1A1A" opacity="0.060"/><circle cx="422" cy="1144" r="0.4" fill="#1A1A1A" opacity="0.060"/><circle cx="774" cy="115" r="0.9" fill="#1A1A1A" opacity="0.060"/><circle cx="212" cy="465" r="1.4" fill="#1A1A1A" opacity="0.060"/><circle cx="204" cy="460" r="1.0" fill="#1A1A1A" opacity="0.060"/><circle cx="94" cy="597" r="0.7" fill="#1A1A1A" opacity="0.060"/><circle cx="881" cy="1044" r="1.0" fill="#1A1A1A" opacity="0.060"/><circle cx="839" cy="99" r="0.4" fill="#1A1A1A" opacity="0.060"/><circle cx="368" cy="1032" r="1.4" fill="#1A1A1A" opacity="0.060"/><circle cx="886" cy="932" r="0.8" fill="#1A1A1A" opacity="0.060"/><circle cx="693" cy="869" r="0.9" fill="#1A1A1A" opacity="0.060"/><circle cx="737" cy="848" r="0.6" fill="#1A1A1A" opacity="0.060"/><circle cx="51" cy="259" r="1.3" fill="#1A1A1A" opacity="0.060"/><circle cx="372" cy="364" r="1.2" fill="#1A1A1A" opacity="0.060"/><circle cx="165" cy="287" r="0.5" fill="#1A1A1A" opacity="0.060"/><circle cx="816" cy="281" r="0.8" fill="#1A1A1A" opacity="0.060"/><circle cx="499" cy="212" r="1.4" fill="#1A1A1A" opacity="0.060"/><circle cx="721" cy="118" r="0.6" fill="#1A1A1A" opacity="0.060"/><circle cx="759" cy="245" r="0.8" fill="#1A1A1A" opacity="0.060"/><circle cx="760" cy="343" r="1.0" fill="#1A1A1A" opacity="0.060"/><circle cx="381" cy="826" r="1.2" fill="#1A1A1A" opacity="0.060"/><circle cx="723" cy="253" r="1.1" fill="#1A1A1A" opacity="0.060"/><circle cx="166" cy="1116" r="0.7" fill="#1A1A1A" opacity="0.060"/><circle cx="492" cy="281" r="1.0" fill="#1A1A1A" opacity="0.060"/><circle cx="272" cy="62" r="0.4" fill="#1A1A1A" opacity="0.060"/><circle cx="641" cy="270" r="0.6" fill="#1A1A1A" opacity="0.060"/><circle cx="638" cy="942" r="0.7" fill="#1A1A1A" opacity="0.060"/><circle cx="506" cy="1036" r="1.3" fill="#1A1A1A" opacity="0.060"/><circle cx="420" cy="794" r="1.1" fill="#1A1A1A" opacity="0.060"/><circle cx="690" cy="1079" r="0.6" fill="#1A1A1A" opacity="0.060"/><circle cx="351" cy="1092" r="0.7" fill="#1A1A1A" opacity="0.060"/><circle cx="262" cy="951" r="0.7" fill="#1A1A1A" opacity="0.060"/><circle cx="532" cy="84" r="1.5" fill="#1A1A1A" opacity="0.060"/><circle cx="535" cy="84" r="0.6" fill="#1A1A1A" opacity="0.060"/><circle cx="88" cy="630" r="1.2" fill="#1A1A1A" opacity="0.060"/><circle cx="525" cy="867" r="1.3" fill="#1A1A1A" opacity="0.060"/><circle cx="458" cy="591" r="1.1" fill="#1A1A1A" opacity="0.060"/><circle cx="634" cy="1009" r="1.1" fill="#1A1A1A" opacity="0.060"/><circle cx="366" cy="746" r="1.3" fill="#1A1A1A" opacity="0.060"/><circle cx="537" cy="364" r="1.0" fill="#1A1A1A" opacity="0.060"/><circle cx="481" cy="225" r="1.4" fill="#1A1A1A" opacity="0.060"/><circle cx="51" cy="1001" r="0.7" fill="#1A1A1A" opacity="0.060"/><circle cx="281" cy="1034" r="0.9" fill="#1A1A1A" opacity="0.060"/><circle cx="536" cy="59" r="0.9" fill="#1A1A1A" opacity="0.060"/><circle cx="514" cy="617" r="0.8" fill="#1A1A1A" opacity="0.060"/><circle cx="44" cy="66" r="0.5" fill="#1A1A1A" opacity="0.060"/><circle cx="676" cy="459" r="1.4" fill="#1A1A1A" opacity="0.060"/><circle cx="673" cy="561" r="1.1" fill="#1A1A1A" opacity="0.060"/><circle cx="654" cy="997" r="0.5" fill="#1A1A1A" opacity="0.060"/><circle cx="393" cy="112" r="1.2" fill="#1A1A1A" opacity="0.060"/><circle cx="427" cy="939" r="0.5" fill="#1A1A1A" opacity="0.060"/><circle cx="764" cy="138" r="0.5" fill="#1A1A1A" opacity="0.060"/><circle cx="245" cy="357" r="0.5" fill="#1A1A1A" opacity="0.060"/><circle cx="756" cy="1113" r="1.1" fill="#1A1A1A" opacity="0.060"/><circle cx="448" cy="460" r="0.7" fill="#1A1A1A" opacity="0.060"/><circle cx="418" cy="600" r="1.2" fill="#1A1A1A" opacity="0.060"/><circle cx="333" cy="441" r="1.3" fill="#1A1A1A" opacity="0.060"/><circle cx="636" cy="92" r="0.9" fill="#1A1A1A" opacity="0.060"/><circle cx="304" cy="291" r="1.0" fill="#1A1A1A" opacity="0.060"/><circle cx="208" cy="611" r="0.6" fill="#1A1A1A" opacity="0.060"/><circle cx="245" cy="222" r="1.1" fill="#1A1A1A" opacity="0.060"/><circle cx="193" cy="964" r="0.7" fill="#1A1A1A" opacity="0.060"/><circle cx="100" cy="102" r="1.3" fill="#1A1A1A" opacity="0.060"/><circle cx="507" cy="498" r="0.5" fill="#1A1A1A" opacity="0.060"/><circle cx="624" cy="234" r="1.4" fill="#1A1A1A" opacity="0.060"/><circle cx="626" cy="693" r="0.8" fill="#1A1A1A" opacity="0.060"/><circle cx="739" cy="615" r="0.7" fill="#1A1A1A" opacity="0.060"/><circle cx="566" cy="804" r="1.3" fill="#1A1A1A" opacity="0.060"/><circle cx="596" cy="798" r="0.6" fill="#1A1A1A" opacity="0.060"/><circle cx="770" cy="638" r="0.7" fill="#1A1A1A" opacity="0.060"/><circle cx="803" cy="183" r="1.0" fill="#1A1A1A" opacity="0.060"/><circle cx="863" cy="1102" r="0.9" fill="#1A1A1A" opacity="0.060"/><circle cx="831" cy="1051" r="0.8" fill="#1A1A1A" opacity="0.060"/><circle cx="114" cy="106" r="1.4" fill="#1A1A1A" opacity="0.060"/><circle cx="6" cy="562" r="0.8" fill="#1A1A1A" opacity="0.060"/><circle cx="137" cy="327" r="0.5" fill="#1A1A1A" opacity="0.060"/><circle cx="249" cy="728" r="0.6" fill="#1A1A1A" opacity="0.060"/><circle cx="397" cy="177" r="1.2" fill="#1A1A1A" opacity="0.060"/><circle cx="488" cy="906" r="0.8" fill="#1A1A1A" opacity="0.060"/><circle cx="110" cy="1094" r="0.5" fill="#1A1A1A" opacity="0.060"/><circle cx="502" cy="846" r="1.0" fill="#1A1A1A" opacity="0.060"/><circle cx="16" cy="1121" r="1.4" fill="#1A1A1A" opacity="0.060"/><circle cx="140" cy="546" r="1.3" fill="#1A1A1A" opacity="0.060"/><circle cx="97" cy="321" r="1.4" fill="#1A1A1A" opacity="0.060"/><circle cx="439" cy="924" r="1.1" fill="#1A1A1A" opacity="0.060"/><circle cx="622" cy="298" r="1.2" fill="#1A1A1A" opacity="0.060"/><circle cx="4" cy="315" r="1.4" fill="#1A1A1A" opacity="0.060"/><circle cx="762" cy="105" r="1.1" fill="#1A1A1A" opacity="0.060"/><circle cx="884" cy="974" r="1.4" fill="#1A1A1A" opacity="0.060"/><circle cx="139" cy="887" r="1.1" fill="#1A1A1A" opacity="0.060"/><circle cx="73" cy="301" r="1.4" fill="#1A1A1A" opacity="0.060"/><circle cx="131" cy="630" r="0.7" fill="#1A1A1A" opacity="0.060"/><circle cx="885" cy="858" r="0.9" fill="#1A1A1A" opacity="0.060"/><circle cx="317" cy="955" r="1.4" fill="#1A1A1A" opacity="0.060"/><circle cx="736" cy="845" r="0.9" fill="#1A1A1A" opacity="0.060"/><circle cx="505" cy="288" r="0.6" fill="#1A1A1A" opacity="0.060"/><circle cx="416" cy="673" r="0.5" fill="#1A1A1A" opacity="0.060"/><circle cx="404" cy="458" r="1.4" fill="#1A1A1A" opacity="0.060"/><circle cx="272" cy="844" r="1.4" fill="#1A1A1A" opacity="0.060"/><circle cx="805" cy="725" r="1.5" fill="#1A1A1A" opacity="0.060"/><circle cx="891" cy="103" r="0.7" fill="#1A1A1A" opacity="0.060"/><circle cx="680" cy="687" r="0.8" fill="#1A1A1A" opacity="0.060"/><circle cx="299" cy="995" r="0.5" fill="#1A1A1A" opacity="0.060"/><circle cx="899" cy="122" r="1.0" fill="#1A1A1A" opacity="0.060"/><circle cx="522" cy="1149" r="0.9" fill="#1A1A1A" opacity="0.060"/><circle cx="550" cy="279" r="1.0" fill="#1A1A1A" opacity="0.060"/><circle cx="171" cy="74" r="1.1" fill="#1A1A1A" opacity="0.060"/><circle cx="744" cy="621" r="1.5" fill="#1A1A1A" opacity="0.060"/><circle cx="165" cy="848" r="0.9" fill="#1A1A1A" opacity="0.060"/><circle cx="583" cy="640" r="0.9" fill="#1A1A1A" opacity="0.060"/><circle cx="668" cy="904" r="1.0" fill="#1A1A1A" opacity="0.060"/><circle cx="184" cy="1068" r="0.5" fill="#1A1A1A" opacity="0.060"/><circle cx="94" cy="597" r="0.8" fill="#1A1A1A" opacity="0.060"/><circle cx="574" cy="70" r="1.0" fill="#1A1A1A" opacity="0.060"/><circle cx="17" cy="425" r="1.2" fill="#1A1A1A" opacity="0.060"/><circle cx="233" cy="369" r="1.1" fill="#1A1A1A" opacity="0.060"/><circle cx="159" cy="661" r="0.6" fill="#1A1A1A" opacity="0.060"/><circle cx="634" cy="430" r="1.1" fill="#1A1A1A" opacity="0.060"/><circle cx="807" cy="680" r="1.1" fill="#1A1A1A" opacity="0.060"/><circle cx="649" cy="1130" r="0.6" fill="#1A1A1A" opacity="0.060"/><circle cx="208" cy="768" r="1.3" fill="#1A1A1A" opacity="0.060"/><circle cx="13" cy="471" r="0.7" fill="#1A1A1A" opacity="0.060"/><circle cx="132" cy="642" r="0.7" fill="#1A1A1A" opacity="0.060"/><circle cx="281" cy="1056" r="0.8" fill="#1A1A1A" opacity="0.060"/><circle cx="511" cy="1117" r="1.3" fill="#1A1A1A" opacity="0.060"/><circle cx="300" cy="237" r="0.6" fill="#1A1A1A" opacity="0.060"/><circle cx="680" cy="179" r="1.3" fill="#1A1A1A" opacity="0.060"/><circle cx="694" cy="36" r="1.3" fill="#1A1A1A" opacity="0.060"/><circle cx="616" cy="93" r="0.5" fill="#1A1A1A" opacity="0.060"/><circle cx="584" cy="789" r="0.6" fill="#1A1A1A" opacity="0.060"/><circle cx="721" cy="1004" r="0.7" fill="#1A1A1A" opacity="0.060"/><circle cx="447" cy="361" r="0.6" fill="#1A1A1A" opacity="0.060"/><circle cx="655" cy="324" r="1.1" fill="#1A1A1A" opacity="0.060"/><circle cx="472" cy="292" r="0.5" fill="#1A1A1A" opacity="0.060"/><circle cx="648" cy="1067" r="1.3" fill="#1A1A1A" opacity="0.060"/><circle cx="817" cy="616" r="1.0" fill="#1A1A1A" opacity="0.060"/><circle cx="567" cy="624" r="1.4" fill="#1A1A1A" opacity="0.060"/><circle cx="599" cy="120" r="0.5" fill="#1A1A1A" opacity="0.060"/><circle cx="69" cy="310" r="0.8" fill="#1A1A1A" opacity="0.060"/><circle cx="573" cy="671" r="1.1" fill="#1A1A1A" opacity="0.060"/><circle cx="716" cy="469" r="0.6" fill="#1A1A1A" opacity="0.060"/><circle cx="208" cy="102" r="0.6" fill="#1A1A1A" opacity="0.060"/><circle cx="69" cy="455" r="1.0" fill="#1A1A1A" opacity="0.060"/><circle cx="677" cy="260" r="1.2" fill="#1A1A1A" opacity="0.060"/><circle cx="732" cy="233" r="1.3" fill="#1A1A1A" opacity="0.060"/><circle cx="511" cy="861" r="1.4" fill="#1A1A1A" opacity="0.060"/><circle cx="241" cy="349" r="0.7" fill="#1A1A1A" opacity="0.060"/><circle cx="767" cy="573" r="0.6" fill="#1A1A1A" opacity="0.060"/><circle cx="134" cy="158" r="0.8" fill="#1A1A1A" opacity="0.060"/><circle cx="886" cy="1100" r="1.1" fill="#1A1A1A" opacity="0.060"/><circle cx="283" cy="679" r="1.0" fill="#1A1A1A" opacity="0.060"/><circle cx="122" cy="635" r="0.8" fill="#1A1A1A" opacity="0.060"/><circle cx="279" cy="759" r="1.3" fill="#1A1A1A" opacity="0.060"/><circle cx="292" cy="278" r="1.0" fill="#1A1A1A" opacity="0.060"/><circle cx="781" cy="758" r="1.5" fill="#1A1A1A" opacity="0.060"/><circle cx="186" cy="284" r="0.5" fill="#1A1A1A" opacity="0.060"/><circle cx="367" cy="526" r="1.0" fill="#1A1A1A" opacity="0.060"/><circle cx="492" cy="803" r="1.5" fill="#1A1A1A" opacity="0.060"/><circle cx="98" cy="1000" r="0.9" fill="#1A1A1A" opacity="0.060"/><circle cx="721" cy="446" r="0.7" fill="#1A1A1A" opacity="0.060"/><circle cx="570" cy="1042" r="0.5" fill="#1A1A1A" opacity="0.060"/><circle cx="62" cy="1050" r="0.9" fill="#1A1A1A" opacity="0.060"/><circle cx="0" cy="619" r="1.4" fill="#1A1A1A" opacity="0.060"/><circle cx="441" cy="697" r="0.5" fill="#1A1A1A" opacity="0.060"/><circle cx="608" cy="628" r="1.2" fill="#1A1A1A" opacity="0.060"/><circle cx="26" cy="162" r="0.9" fill="#1A1A1A" opacity="0.060"/><circle cx="469" cy="823" r="0.6" fill="#1A1A1A" opacity="0.060"/><circle cx="345" cy="1076" r="1.3" fill="#1A1A1A" opacity="0.060"/><circle cx="247" cy="682" r="0.5" fill="#1A1A1A" opacity="0.060"/><circle cx="514" cy="786" r="1.4" fill="#1A1A1A" opacity="0.060"/></svg>